{
  "source": "C:\\Users\\Peter\\Desktop\\stuff\\MIUN\\quantitative_research\\video_compression\\videos\\BVI-HD\\BVI-HD_CDVL_videos\\ORIG\\BricksLeaves_1920x1080_60fps.mp4",
  "output": "C:\\Users\\Peter\\Desktop\\stuff\\MIUN\\quantitative_research\\video_compression\\compressed_videos\\BVI-HD\\hevc\\2.5\\BricksLeaves_1920x1080_60fps_hevc.mp4",
  "codec": "hevc",
  "ok": "Input #0, mov,mp4,m4a,3gp,3g2,mj2, from 'C:\\Users\\Peter\\Desktop\\stuff\\MIUN\\quantitative_research\\video_compression\\videos\\BVI-HD\\BVI-HD_CDVL_videos\\ORIG\\BricksLeaves_1920x1080_60fps.mp4':\n  Metadata:\n    major_brand     : isom\n    minor_version   : 512\n    compatible_brands: isomiso2avc1mp41\n    encoder         : Lavf54.28.101\n  Duration: 00:00:05.00, start: 0.000000, bitrate: 524627 kb/s\n  Stream #0:0[0x1](und): Video: h264 (High 4:4:4 Predictive) (avc1 / 0x31637661), yuv420p(progressive), 1920x1080, 524622 kb/s, 60 fps, 60 tbr, 60 tbn (default)\n    Metadata:\n      handler_name    : VideoHandler\n      vendor_id       : [0][0][0][0]\n[out#0/mp4 @ 000001e42c5fab40] Codec AVOption b:a (set bitrate (in bits/s)) has not been used for any stream. The most likely reason is either wrong type (e.g. a video option with no video streams) or that it is a private option of some decoder which was not actually used for any stream.\nStream mapping:\n  Stream #0:0 -> #0:0 (h264 (native) -> hevc (libx265))\nPress [q] to stop, [?] for help\n[libx265 @ 000001e42d1b04c0] Unknown option: \"aq-mode.\nx265 [info]: HEVC encoder version 4.1+190-8f11c33ac\nx265 [info]: build info [Windows][GCC 15.1.0][64 bit] 10bit\nx265 [info]: using cpu capabilities: MMX2 SSE2Fast LZCNT SSSE3 SSE4.2 AVX FMA3 BMI2 AVX2\nx265 [info]: Main 10 profile, Level-4.1 (Main tier)\nx265 [info]: Thread pool created using 12 threads\nx265 [info]: Slices                              : 1\nx265 [info]: frame threads / pool features       : 3 / wpp(17 rows)\nx265 [info]: Coding QT: max CU size, min CU size : 64 / 8\nx265 [info]: Residual QT: max TU size, max depth : 32 / 1 inter / 1 intra\nx265 [info]: ME / range / subpel / merge         : star / 57 / 3 / 3\nx265 [info]: Keyframe min / max / scenecut / bias  : 25 / 250 / 40 / 5.00 \nx265 [info]: Lookahead / bframes / badapt        : 25 / 4 / 2\nx265 [info]: b-pyramid / weightp / weightb       : 1 / 1 / 0\nx265 [info]: References / ref-limit  cu / depth  : 4 / on / on\nx265 [info]: AQ: mode / str / qg-size / cu-tree  : 2 / 1.0 / 32 / 1\nx265 [info]: Rate Control / qCompress            : ABR-2500 kbps / 0.60\nx265 [info]: VBV/HRD buffer / max-rate / init    : 2500 / 2500 / 0.750\nx265 [info]: tools: rect limit-modes rd=4 psy-rd=2.00 rdoq=2 psy-rdoq=1.00\nx265 [info]: tools: rskip mode=1 signhide tmvp strong-intra-smoothing lslices=4\nx265 [info]: tools: deblock sao dhdr10-info\nOutput #0, mp4, to 'C:\\Users\\Peter\\Desktop\\stuff\\MIUN\\quantitative_research\\video_compression\\compressed_videos\\BVI-HD\\hevc\\2.5\\BricksLeaves_1920x1080_60fps_hevc.mp4':\n  Metadata:\n    major_brand     : isom\n    minor_version   : 512\n    compatible_brands: isomiso2avc1mp41\n    encoder         : Lavf62.3.100\n  Stream #0:0(und): Video: hevc (hev1 / 0x31766568), yuv420p10le(tv, progressive), 1920x1080, q=2-31, 2500 kb/s, 60 fps, 15360 tbn (default)\n    Metadata:\n      encoder         : Lavc62.11.100 libx265\n      handler_name    : VideoHandler\n      vendor_id       : [0][0][0][0]\n    Side data:\n      cpb: bitrate max/min/avg: 2500000/0/2500000 buffer size: 2500000 vbv_delay: N/A\nframe=    0 fps=0.0 q=0.0 size=       0KiB time=N/A bitrate=N/A speed=N/A elapsed=0:00:01.13    \nframe=    0 fps=0.0 q=0.0 size=       0KiB time=N/A bitrate=N/A speed=N/A elapsed=0:00:01.69    \nframe=    0 fps=0.0 q=0.0 size=       0KiB time=N/A bitrate=N/A speed=N/A elapsed=0:00:02.23    \nframe=    0 fps=0.0 q=0.0 size=       0KiB time=N/A bitrate=N/A speed=N/A elapsed=0:00:02.76    \nframe=    0 fps=0.0 q=0.0 size=       0KiB time=N/A bitrate=N/A speed=N/A elapsed=0:00:03.28    \nframe=    0 fps=0.0 q=0.0 size=       0KiB time=N/A bitrate=N/A speed=N/A elapsed=0:00:03.82    \nframe=    0 fps=0.0 q=0.0 size=       0KiB time=N/A bitrate=N/A speed=N/A elapsed=0:00:04.34    \nframe=    0 fps=0.0 q=0.0 size=       0KiB time=N/A bitrate=N/A speed=N/A elapsed=0:00:04.86    \nframe=    0 fps=0.0 q=0.0 size=       0KiB time=N/A bitrate=N/A speed=N/A elapsed=0:00:05.38    \nframe=    0 fps=0.0 q=0.0 size=       0KiB time=N/A bitrate=N/A speed=N/A elapsed=0:00:05.89    \nframe=    0 fps=0.0 q=0.0 size=       0KiB time=N/A bitrate=N/A speed=N/A elapsed=0:00:06.46    \nframe=    0 fps=0.0 q=0.0 size=       0KiB time=N/A bitrate=N/A speed=N/A elapsed=0:00:07.01    \nframe=    1 fps=0.1 q=42.0 size=       0KiB time=-00:00:00.01 bitrate=N/A speed=N/A elapsed=0:00:07.55    \nframe=    1 fps=0.1 q=42.0 size=       0KiB time=-00:00:00.01 bitrate=N/A speed=N/A elapsed=0:00:08.08    \nframe=    3 fps=0.3 q=51.0 size=       0KiB time=00:00:00.01 bitrate=  21.1kbits/s speed=0.00193x elapsed=0:00:08.61    \nframe=    4 fps=0.4 q=51.0 size=       0KiB time=00:00:00.03 bitrate=  10.6kbits/s speed=0.00365x elapsed=0:00:09.13    \nframe=    5 fps=0.5 q=51.0 size=       0KiB time=00:00:00.05 bitrate=   7.0kbits/s speed=0.00519x elapsed=0:00:09.64    \nframe=    6 fps=0.6 q=51.0 size=       0KiB time=00:00:00.06 bitrate=   5.3kbits/s speed=0.00656x elapsed=0:00:10.16    \nframe=    6 fps=0.6 q=51.0 size=       0KiB time=00:00:00.06 bitrate=   5.3kbits/s speed=0.00625x elapsed=0:00:10.67    \nframe=    7 fps=0.6 q=44.5 size=       0KiB time=00:00:00.08 bitrate=   4.2kbits/s speed=0.00744x elapsed=0:00:11.19    \nframe=    8 fps=0.7 q=48.0 size=       0KiB time=00:00:00.10 bitrate=   3.5kbits/s speed=0.00853x elapsed=0:00:11.72    \nframe=    9 fps=0.7 q=47.9 size=       0KiB time=00:00:00.11 bitrate=   3.0kbits/s speed=0.00952x elapsed=0:00:12.25    \nframe=    9 fps=0.7 q=47.9 size=       0KiB time=00:00:00.11 bitrate=   3.0kbits/s speed=0.0091x elapsed=0:00:12.82    \nframe=    9 fps=0.7 q=47.9 size=       0KiB time=00:00:00.11 bitrate=   3.0kbits/s speed=0.00873x elapsed=0:00:13.35    \nframe=   10 fps=0.7 q=47.5 size=       0KiB time=00:00:00.13 bitrate=   2.6kbits/s speed=0.00959x elapsed=0:00:13.89    \nframe=   11 fps=0.8 q=46.9 size=       0KiB time=00:00:00.15 bitrate=   2.3kbits/s speed=0.0104x elapsed=0:00:14.41    \nframe=   12 fps=0.8 q=40.9 size=       0KiB time=00:00:00.16 bitrate=   2.1kbits/s speed=0.0111x elapsed=0:00:14.95    \nframe=   14 fps=0.9 q=46.7 size=       0KiB time=00:00:00.20 bitrate=   1.8kbits/s speed=0.0129x elapsed=0:00:15.47    \nframe=   14 fps=0.9 q=46.7 size=       0KiB time=00:00:00.20 bitrate=   1.8kbits/s speed=0.0125x elapsed=0:00:16.00    \nframe=   15 fps=0.9 q=47.5 size=       0KiB time=00:00:00.21 bitrate=   1.6kbits/s speed=0.0131x elapsed=0:00:16.51    \nframe=   15 fps=0.9 q=47.5 size=       0KiB time=00:00:00.21 bitrate=   1.6kbits/s speed=0.0127x elapsed=0:00:17.03    \nframe=   15 fps=0.9 q=47.5 size=       0KiB time=00:00:00.21 bitrate=   1.6kbits/s speed=0.0123x elapsed=0:00:17.54    \nframe=   15 fps=0.8 q=47.5 size=       0KiB time=00:00:00.21 bitrate=   1.6kbits/s speed=0.012x elapsed=0:00:18.07    \nframe=   15 fps=0.8 q=47.5 size=       0KiB time=00:00:00.21 bitrate=   1.6kbits/s speed=0.0116x elapsed=0:00:18.61    \nframe=   17 fps=0.9 q=40.8 size=       0KiB time=00:00:00.25 bitrate=   1.4kbits/s speed=0.0131x elapsed=0:00:19.12    \nframe=   18 fps=0.9 q=47.4 size=       0KiB time=00:00:00.26 bitrate=   1.3kbits/s speed=0.0136x elapsed=0:00:19.65    \nframe=   19 fps=0.9 q=48.2 size=       0KiB time=00:00:00.28 bitrate=   1.2kbits/s speed=0.014x elapsed=0:00:20.18    \nframe=   19 fps=0.9 q=48.2 size=       0KiB time=00:00:00.28 bitrate=   1.2kbits/s speed=0.0137x elapsed=0:00:20.70    \nframe=   20 fps=0.9 q=47.6 size=       0KiB time=00:00:00.30 bitrate=   1.2kbits/s speed=0.0141x elapsed=0:00:21.23    \nframe=   21 fps=1.0 q=47.2 size=       0KiB time=00:00:00.31 bitrate=   1.1kbits/s speed=0.0145x elapsed=0:00:21.76    \nframe=   21 fps=0.9 q=47.2 size=       0KiB time=00:00:00.31 bitrate=   1.1kbits/s speed=0.0142x elapsed=0:00:22.33    \nframe=   22 fps=1.0 q=39.8 size=       0KiB time=00:00:00.33 bitrate=   1.1kbits/s speed=0.0146x elapsed=0:00:22.85    \nframe=   23 fps=1.0 q=46.5 size=       0KiB time=00:00:00.35 bitrate=   1.0kbits/s speed=0.015x elapsed=0:00:23.37    \nframe=   24 fps=1.0 q=47.5 size=       0KiB time=00:00:00.36 bitrate=   1.0kbits/s speed=0.0153x elapsed=0:00:23.91    \nframe=   25 fps=1.0 q=47.7 size=       0KiB time=00:00:00.38 bitrate=   0.9kbits/s speed=0.0157x elapsed=0:00:24.44    \nframe=   25 fps=1.0 q=47.7 size=       0KiB time=00:00:00.38 bitrate=   0.9kbits/s speed=0.0153x elapsed=0:00:24.98    \nframe=   26 fps=1.0 q=47.7 size=       0KiB time=00:00:00.40 bitrate=   0.9kbits/s speed=0.0157x elapsed=0:00:25.51    \nframe=   27 fps=1.0 q=40.6 size=       0KiB time=00:00:00.41 bitrate=   0.8kbits/s speed=0.016x elapsed=0:00:26.04    \nframe=   29 fps=1.1 q=47.6 size=       0KiB time=00:00:00.45 bitrate=   0.8kbits/s speed=0.0169x elapsed=0:00:26.57    \nframe=   29 fps=1.1 q=47.6 size=       0KiB time=00:00:00.45 bitrate=   0.8kbits/s speed=0.0166x elapsed=0:00:27.11    \nframe=   30 fps=1.1 q=46.6 size=       0KiB time=00:00:00.46 bitrate=   0.8kbits/s speed=0.0169x elapsed=0:00:27.63    \nframe=   30 fps=1.1 q=46.6 size=       0KiB time=00:00:00.46 bitrate=   0.8kbits/s speed=0.0166x elapsed=0:00:28.17    \nframe=   31 fps=1.1 q=46.7 size=       0KiB time=00:00:00.48 bitrate=   0.7kbits/s speed=0.0168x elapsed=0:00:28.73    \nframe=   31 fps=1.1 q=46.7 size=       0KiB time=00:00:00.48 bitrate=   0.7kbits/s speed=0.0165x elapsed=0:00:29.29    \nframe=   32 fps=1.1 q=39.5 size=       0KiB time=00:00:00.50 bitrate=   0.7kbits/s speed=0.0167x elapsed=0:00:29.88    \nframe=   32 fps=1.1 q=39.5 size=       0KiB time=00:00:00.50 bitrate=   0.7kbits/s speed=0.0164x elapsed=0:00:30.45    \nframe=   32 fps=1.0 q=39.5 size=       0KiB time=00:00:00.50 bitrate=   0.7kbits/s speed=0.0161x elapsed=0:00:31.04    \nframe=   32 fps=1.0 q=39.5 size=       0KiB time=00:00:00.50 bitrate=   0.7kbits/s speed=0.0158x elapsed=0:00:31.58    \nframe=   32 fps=1.0 q=39.5 size=       0KiB time=00:00:00.50 bitrate=   0.7kbits/s speed=0.0156x elapsed=0:00:32.13    \nframe=   32 fps=1.0 q=39.5 size=       0KiB time=00:00:00.50 bitrate=   0.7kbits/s speed=0.0153x elapsed=0:00:32.68    \nframe=   32 fps=1.0 q=39.5 size=       0KiB time=00:00:00.50 bitrate=   0.7kbits/s speed=0.0151x elapsed=0:00:33.21    \nframe=   33 fps=1.0 q=45.6 size=       0KiB time=00:00:00.51 bitrate=   0.7kbits/s speed=0.0153x elapsed=0:00:33.76    \nframe=   34 fps=1.0 q=46.5 size=       0KiB time=00:00:00.53 bitrate=   0.7kbits/s speed=0.0155x elapsed=0:00:34.30    \nframe=   34 fps=1.0 q=46.5 size=       0KiB time=00:00:00.53 bitrate=   0.7kbits/s speed=0.0153x elapsed=0:00:34.82    \nframe=   36 fps=1.0 q=46.3 size=       0KiB time=00:00:00.56 bitrate=   0.6kbits/s speed=0.016x elapsed=0:00:35.36    \nframe=   37 fps=1.0 q=39.6 size=       0KiB time=00:00:00.58 bitrate=   0.6kbits/s speed=0.0163x elapsed=0:00:35.89    \nframe=   38 fps=1.0 q=45.3 size=       0KiB time=00:00:00.60 bitrate=   0.6kbits/s speed=0.0164x elapsed=0:00:36.47    \nframe=   38 fps=1.0 q=45.3 size=       0KiB time=00:00:00.60 bitrate=   0.6kbits/s speed=0.0162x elapsed=0:00:37.02    \nframe=   39 fps=1.0 q=46.3 size=       0KiB time=00:00:00.61 bitrate=   0.6kbits/s speed=0.0164x elapsed=0:00:37.57    \nframe=   39 fps=1.0 q=46.3 size=       0KiB time=00:00:00.61 bitrate=   0.6kbits/s speed=0.0162x elapsed=0:00:38.10    \nframe=   40 fps=1.0 q=45.9 size=       0KiB time=00:00:00.63 bitrate=   0.6kbits/s speed=0.0164x elapsed=0:00:38.66    \nframe=   40 fps=1.0 q=45.9 size=       0KiB time=00:00:00.63 bitrate=   0.6kbits/s speed=0.0162x elapsed=0:00:39.19    \nframe=   40 fps=1.0 q=45.9 size=       0KiB time=00:00:00.63 bitrate=   0.6kbits/s speed=0.0159x elapsed=0:00:39.75    \nframe=   41 fps=1.0 q=45.9 size=       0KiB time=00:00:00.65 bitrate=   0.5kbits/s speed=0.0161x elapsed=0:00:40.31    \nframe=   41 fps=1.0 q=45.9 size=       0KiB time=00:00:00.65 bitrate=   0.5kbits/s speed=0.0159x elapsed=0:00:40.86    \nframe=   41 fps=1.0 q=45.9 size=       0KiB time=00:00:00.65 bitrate=   0.5kbits/s speed=0.0157x elapsed=0:00:41.43    \nframe=   41 fps=1.0 q=45.9 size=       0KiB time=00:00:00.65 bitrate=   0.5kbits/s speed=0.0155x elapsed=0:00:42.04    \nframe=   41 fps=1.0 q=45.9 size=       0KiB time=00:00:00.65 bitrate=   0.5kbits/s speed=0.0153x elapsed=0:00:42.62    \nframe=   42 fps=1.0 q=39.2 size=       0KiB time=00:00:00.65 bitrate=   0.5kbits/s speed=0.0151x elapsed=0:00:43.18    \nframe=   42 fps=1.0 q=39.2 size=       0KiB time=00:00:00.66 bitrate=   0.5kbits/s speed=0.0152x elapsed=0:00:43.78    \nframe=   42 fps=0.9 q=39.2 size=       0KiB time=00:00:00.66 bitrate=   0.5kbits/s speed=0.015x elapsed=0:00:44.32    \nframe=   42 fps=0.9 q=39.2 size=       0KiB time=00:00:00.66 bitrate=   0.5kbits/s speed=0.0149x elapsed=0:00:44.87    \nframe=   42 fps=0.9 q=39.2 size=       0KiB time=00:00:00.66 bitrate=   0.5kbits/s speed=0.0147x elapsed=0:00:45.45    \nframe=   42 fps=0.9 q=39.2 size=       0KiB time=00:00:00.66 bitrate=   0.5kbits/s speed=0.0145x elapsed=0:00:46.01    \nframe=   42 fps=0.9 q=39.2 size=       0KiB time=00:00:00.66 bitrate=   0.5kbits/s speed=0.0143x elapsed=0:00:46.57    \nframe=   43 fps=0.9 q=45.1 size=       0KiB time=00:00:00.68 bitrate=   0.5kbits/s speed=0.0145x elapsed=0:00:47.10    \nframe=   44 fps=0.9 q=45.9 size=       0KiB time=00:00:00.70 bitrate=   0.5kbits/s speed=0.0147x elapsed=0:00:47.72    \nframe=   44 fps=0.9 q=45.9 size=       0KiB time=00:00:00.70 bitrate=   0.5kbits/s speed=0.0145x elapsed=0:00:48.31    \nframe=   44 fps=0.9 q=45.9 size=       0KiB time=00:00:00.70 bitrate=   0.5kbits/s speed=0.0143x elapsed=0:00:48.83    \nframe=   45 fps=0.9 q=45.8 size=       0KiB time=00:00:00.71 bitrate=   0.5kbits/s speed=0.0145x elapsed=0:00:49.35    \nframe=   46 fps=0.9 q=45.7 size=       0KiB time=00:00:00.73 bitrate=   0.5kbits/s speed=0.0147x elapsed=0:00:49.87    \nframe=   46 fps=0.9 q=45.7 size=       0KiB time=00:00:00.73 bitrate=   0.5kbits/s speed=0.0146x elapsed=0:00:50.39    \nframe=   46 fps=0.9 q=45.7 size=       0KiB time=00:00:00.73 bitrate=   0.5kbits/s speed=0.0144x elapsed=0:00:50.94    \nframe=   47 fps=0.9 q=39.2 size=       0KiB time=00:00:00.75 bitrate=   0.5kbits/s speed=0.0146x elapsed=0:00:51.50    \nframe=   48 fps=0.9 q=45.1 size=       0KiB time=00:00:00.76 bitrate=   0.5kbits/s speed=0.0147x elapsed=0:00:52.03    \nframe=   48 fps=0.9 q=45.1 size=       0KiB time=00:00:00.76 bitrate=   0.5kbits/s speed=0.0146x elapsed=0:00:52.54    \nframe=   48 fps=0.9 q=45.1 size=       0KiB time=00:00:00.76 bitrate=   0.5kbits/s speed=0.0144x elapsed=0:00:53.06    \nframe=   49 fps=0.9 q=45.9 size=       0KiB time=00:00:00.78 bitrate=   0.4kbits/s speed=0.0146x elapsed=0:00:53.58    \nframe=   50 fps=0.9 q=45.4 size=       0KiB time=00:00:00.80 bitrate=   0.4kbits/s speed=0.0148x elapsed=0:00:54.09    \nframe=   51 fps=0.9 q=45.7 size=       0KiB time=00:00:00.81 bitrate=   0.4kbits/s speed=0.015x elapsed=0:00:54.61    \nframe=   51 fps=0.9 q=45.7 size=       0KiB time=00:00:00.81 bitrate=   0.4kbits/s speed=0.0148x elapsed=0:00:55.15    \nframe=   52 fps=0.9 q=39.4 size=       0KiB time=00:00:00.83 bitrate=   0.4kbits/s speed=0.015x elapsed=0:00:55.70    \nframe=   53 fps=0.9 q=44.7 size=       0KiB time=00:00:00.85 bitrate=   0.4kbits/s speed=0.0151x elapsed=0:00:56.22    \nframe=   54 fps=1.0 q=45.7 size=       0KiB time=00:00:00.86 bitrate=   0.4kbits/s speed=0.0153x elapsed=0:00:56.74    \nframe=   54 fps=0.9 q=45.7 size=       0KiB time=00:00:00.86 bitrate=   0.4kbits/s speed=0.0151x elapsed=0:00:57.28    \nframe=   55 fps=1.0 q=45.5 size=       0KiB time=00:00:00.88 bitrate=   0.4kbits/s speed=0.0153x elapsed=0:00:57.81    \nframe=   56 fps=1.0 q=45.3 size=     256KiB time=00:00:00.90 bitrate=2330.6kbits/s speed=0.0154x elapsed=0:00:58.33    \nframe=   56 fps=1.0 q=45.3 size=     256KiB time=00:00:00.90 bitrate=2330.6kbits/s speed=0.0153x elapsed=0:00:58.84    \nframe=   57 fps=1.0 q=38.8 size=     256KiB time=00:00:00.91 bitrate=2288.2kbits/s speed=0.0154x elapsed=0:00:59.38    \nframe=   57 fps=1.0 q=38.8 size=     256KiB time=00:00:00.91 bitrate=2288.2kbits/s speed=0.0153x elapsed=0:00:59.90    \nframe=   58 fps=1.0 q=44.6 size=     256KiB time=00:00:00.93 bitrate=2247.3kbits/s speed=0.0154x elapsed=0:01:00.43    \nframe=   59 fps=1.0 q=45.6 size=     256KiB time=00:00:00.95 bitrate=2207.9kbits/s speed=0.0156x elapsed=0:01:00.93    \nframe=   59 fps=1.0 q=45.6 size=     256KiB time=00:00:00.95 bitrate=2207.9kbits/s speed=0.0155x elapsed=0:01:01.46    \nframe=   59 fps=1.0 q=45.6 size=     256KiB time=00:00:00.95 bitrate=2207.9kbits/s speed=0.0153x elapsed=0:01:01.98    \nframe=   60 fps=1.0 q=45.4 size=     256KiB time=00:00:00.96 bitrate=2169.8kbits/s speed=0.0155x elapsed=0:01:02.49    \nframe=   61 fps=1.0 q=45.5 size=     256KiB time=00:00:00.98 bitrate=2133.1kbits/s speed=0.0156x elapsed=0:01:03.02    \nframe=   61 fps=1.0 q=45.5 size=     256KiB time=00:00:00.98 bitrate=2133.1kbits/s speed=0.0155x elapsed=0:01:03.61    \nframe=   61 fps=0.9 q=45.5 size=     256KiB time=00:00:00.98 bitrate=2133.1kbits/s speed=0.0153x elapsed=0:01:04.24    \nframe=   61 fps=0.9 q=45.5 size=     256KiB time=00:00:00.98 bitrate=2133.1kbits/s speed=0.0152x elapsed=0:01:04.76    \nframe=   62 fps=0.9 q=39.8 size=     256KiB time=00:00:01.00 bitrate=2097.5kbits/s speed=0.0153x elapsed=0:01:05.29    \nframe=   63 fps=1.0 q=44.5 size=     256KiB time=00:00:01.01 bitrate=2063.1kbits/s speed=0.0154x elapsed=0:01:05.82    \nframe=   63 fps=0.9 q=44.5 size=     256KiB time=00:00:01.01 bitrate=2063.1kbits/s speed=0.0153x elapsed=0:01:06.34    \nframe=   63 fps=0.9 q=44.5 size=     256KiB time=00:00:01.01 bitrate=2063.1kbits/s speed=0.0152x elapsed=0:01:06.90    \nframe=   63 fps=0.9 q=44.5 size=     256KiB time=00:00:01.01 bitrate=2063.1kbits/s speed=0.0151x elapsed=0:01:07.43    \nframe=   64 fps=0.9 q=45.5 size=     256KiB time=00:00:01.03 bitrate=2029.8kbits/s speed=0.0152x elapsed=0:01:07.98    \nframe=   64 fps=0.9 q=45.5 size=     256KiB time=00:00:01.03 bitrate=2029.8kbits/s speed=0.0151x elapsed=0:01:08.54    \nframe=   66 fps=1.0 q=45.0 size=     256KiB time=00:00:01.06 bitrate=1966.4kbits/s speed=0.0154x elapsed=0:01:09.06    \nframe=   67 fps=1.0 q=39.1 size=     256KiB time=00:00:01.08 bitrate=1936.2kbits/s speed=0.0156x elapsed=0:01:09.59    \nframe=   67 fps=1.0 q=39.1 size=     256KiB time=00:00:01.08 bitrate=1936.2kbits/s speed=0.0154x elapsed=0:01:10.13    \nframe=   68 fps=1.0 q=44.6 size=     256KiB time=00:00:01.10 bitrate=1906.8kbits/s speed=0.0156x elapsed=0:01:10.69    \nframe=   68 fps=1.0 q=44.6 size=     256KiB time=00:00:01.10 bitrate=1906.8kbits/s speed=0.0154x elapsed=0:01:11.23    \nframe=   69 fps=1.0 q=45.1 size=     256KiB time=00:00:01.11 bitrate=1878.4kbits/s speed=0.0156x elapsed=0:01:11.75    \nframe=   69 fps=1.0 q=45.1 size=     256KiB time=00:00:01.11 bitrate=1878.4kbits/s speed=0.0154x elapsed=0:01:12.32    \nframe=   69 fps=0.9 q=45.1 size=     256KiB time=00:00:01.11 bitrate=1878.4kbits/s speed=0.0153x elapsed=0:01:12.90    \nframe=   69 fps=0.9 q=45.1 size=     256KiB time=00:00:01.11 bitrate=1878.4kbits/s speed=0.0152x elapsed=0:01:13.45    \nframe=   70 fps=0.9 q=45.0 size=     256KiB time=00:00:01.13 bitrate=1850.7kbits/s speed=0.0153x elapsed=0:01:14.05    \nframe=   70 fps=0.9 q=45.0 size=     256KiB time=00:00:01.13 bitrate=1850.7kbits/s speed=0.0152x elapsed=0:01:14.60    \nframe=   70 fps=0.9 q=45.0 size=     256KiB time=00:00:01.13 bitrate=1850.7kbits/s speed=0.0151x elapsed=0:01:15.14    \nframe=   70 fps=0.9 q=45.0 size=     256KiB time=00:00:01.13 bitrate=1850.7kbits/s speed=0.015x elapsed=0:01:15.66    \nframe=   70 fps=0.9 q=45.0 size=     256KiB time=00:00:01.13 bitrate=1850.7kbits/s speed=0.0149x elapsed=0:01:16.20    \nframe=   70 fps=0.9 q=45.0 size=     256KiB time=00:00:01.13 bitrate=1850.7kbits/s speed=0.0148x elapsed=0:01:16.74    \nframe=   70 fps=0.9 q=45.0 size=     256KiB time=00:00:01.13 bitrate=1850.7kbits/s speed=0.0147x elapsed=0:01:17.29    \nframe=   70 fps=0.9 q=45.0 size=     256KiB time=00:00:01.13 bitrate=1850.7kbits/s speed=0.0146x elapsed=0:01:17.83    \nframe=   71 fps=0.9 q=45.1 size=     256KiB time=00:00:01.15 bitrate=1823.9kbits/s speed=0.0147x elapsed=0:01:18.37    \nframe=   71 fps=0.9 q=45.1 size=     256KiB time=00:00:01.15 bitrate=1823.9kbits/s speed=0.0146x elapsed=0:01:18.91    \nframe=   71 fps=0.9 q=45.1 size=     256KiB time=00:00:01.15 bitrate=1823.9kbits/s speed=0.0145x elapsed=0:01:19.44    \nframe=   71 fps=0.9 q=45.1 size=     256KiB time=00:00:01.15 bitrate=1823.9kbits/s speed=0.0144x elapsed=0:01:20.01    \nframe=   71 fps=0.9 q=45.1 size=     256KiB time=00:00:01.15 bitrate=1823.9kbits/s speed=0.0143x elapsed=0:01:20.55    \nframe=   73 fps=0.9 q=44.1 size=     256KiB time=00:00:01.18 bitrate=1772.5kbits/s speed=0.0146x elapsed=0:01:21.11    \nframe=   73 fps=0.9 q=44.1 size=     256KiB time=00:00:01.18 bitrate=1772.5kbits/s speed=0.0145x elapsed=0:01:21.66    \nframe=   73 fps=0.9 q=44.1 size=     256KiB time=00:00:01.18 bitrate=1772.5kbits/s speed=0.0144x elapsed=0:01:22.19    \nframe=   73 fps=0.9 q=44.1 size=     256KiB time=00:00:01.18 bitrate=1772.5kbits/s speed=0.0143x elapsed=0:01:22.72    \nframe=   74 fps=0.9 q=45.2 size=     256KiB time=00:00:01.20 bitrate=1747.9kbits/s speed=0.0144x elapsed=0:01:23.28    \nframe=   74 fps=0.9 q=45.2 size=     256KiB time=00:00:01.20 bitrate=1747.9kbits/s speed=0.0143x elapsed=0:01:23.82    \nframe=   74 fps=0.9 q=45.2 size=     256KiB time=00:00:01.20 bitrate=1747.9kbits/s speed=0.0142x elapsed=0:01:24.36    \nframe=   74 fps=0.9 q=45.2 size=     256KiB time=00:00:01.20 bitrate=1747.9kbits/s speed=0.0141x elapsed=0:01:24.90    \nframe=   74 fps=0.9 q=45.2 size=     256KiB time=00:00:01.20 bitrate=1747.9kbits/s speed=0.014x elapsed=0:01:25.44    \nframe=   75 fps=0.9 q=44.9 size=     256KiB time=00:00:01.21 bitrate=1724.0kbits/s speed=0.0142x elapsed=0:01:25.96    \nframe=   75 fps=0.9 q=44.9 size=     256KiB time=00:00:01.21 bitrate=1724.0kbits/s speed=0.0141x elapsed=0:01:26.55    \nframe=   76 fps=0.9 q=44.9 size=     256KiB time=00:00:01.21 bitrate=1724.0kbits/s speed=0.014x elapsed=0:01:27.12    \nframe=   76 fps=0.9 q=44.9 size=     256KiB time=00:00:01.23 bitrate=1700.7kbits/s speed=0.0141x elapsed=0:01:27.71    \nframe=   77 fps=0.9 q=38.3 size=     256KiB time=00:00:01.25 bitrate=1678.0kbits/s speed=0.0142x elapsed=0:01:28.29    \nframe=   78 fps=0.9 q=44.3 size=     256KiB time=00:00:01.26 bitrate=1655.9kbits/s speed=0.0143x elapsed=0:01:28.82    \nframe=   78 fps=0.9 q=44.3 size=     256KiB time=00:00:01.26 bitrate=1655.9kbits/s speed=0.0142x elapsed=0:01:29.36    \nframe=   78 fps=0.9 q=44.3 size=     256KiB time=00:00:01.26 bitrate=1655.9kbits/s speed=0.0141x elapsed=0:01:29.88    \nframe=   78 fps=0.9 q=44.3 size=     256KiB time=00:00:01.26 bitrate=1655.9kbits/s speed=0.014x elapsed=0:01:30.42    \nframe=   79 fps=0.9 q=45.2 size=     256KiB time=00:00:01.28 bitrate=1634.4kbits/s speed=0.0141x elapsed=0:01:31.02    \nframe=   79 fps=0.9 q=45.2 size=     256KiB time=00:00:01.28 bitrate=1634.4kbits/s speed=0.014x elapsed=0:01:31.64    \nframe=   79 fps=0.9 q=45.2 size=     256KiB time=00:00:01.28 bitrate=1634.4kbits/s speed=0.0139x elapsed=0:01:32.26    \nframe=   79 fps=0.9 q=45.2 size=     256KiB time=00:00:01.28 bitrate=1634.4kbits/s speed=0.0138x elapsed=0:01:32.84    \nframe=   79 fps=0.8 q=45.2 size=     256KiB time=00:00:01.28 bitrate=1634.4kbits/s speed=0.0137x elapsed=0:01:33.43    \nframe=   79 fps=0.8 q=45.2 size=     256KiB time=00:00:01.28 bitrate=1634.4kbits/s speed=0.0136x elapsed=0:01:34.08    \nframe=   80 fps=0.8 q=45.2 size=     256KiB time=00:00:01.30 bitrate=1613.5kbits/s speed=0.0137x elapsed=0:01:34.61    \nframe=   80 fps=0.8 q=45.2 size=     256KiB time=00:00:01.30 bitrate=1613.5kbits/s speed=0.0137x elapsed=0:01:35.13    \nframe=   82 fps=0.9 q=38.7 size=     256KiB time=00:00:01.33 bitrate=1573.1kbits/s speed=0.0139x elapsed=0:01:35.66    \nframe=   82 fps=0.9 q=38.7 size=     256KiB time=00:00:01.33 bitrate=1573.1kbits/s speed=0.0139x elapsed=0:01:36.21    \nframe=   83 fps=0.9 q=44.3 size=     256KiB time=00:00:01.35 bitrate=1553.7kbits/s speed=0.014x elapsed=0:01:36.73    \nframe=   83 fps=0.9 q=44.3 size=     256KiB time=00:00:01.35 bitrate=1553.7kbits/s speed=0.0139x elapsed=0:01:37.29    \nframe=   83 fps=0.8 q=44.3 size=     256KiB time=00:00:01.35 bitrate=1553.7kbits/s speed=0.0138x elapsed=0:01:37.81    \nframe=   83 fps=0.8 q=44.3 size=     256KiB time=00:00:01.35 bitrate=1553.7kbits/s speed=0.0137x elapsed=0:01:38.35    \nframe=   84 fps=0.8 q=45.3 size=     256KiB time=00:00:01.36 bitrate=1534.8kbits/s speed=0.0138x elapsed=0:01:38.92    \nframe=   84 fps=0.8 q=45.3 size=     256KiB time=00:00:01.36 bitrate=1534.8kbits/s speed=0.0137x elapsed=0:01:39.48    \nframe=   84 fps=0.8 q=45.3 size=     256KiB time=00:00:01.36 bitrate=1534.8kbits/s speed=0.0137x elapsed=0:01:40.03    \nframe=   84 fps=0.8 q=45.3 size=     256KiB time=00:00:01.36 bitrate=1534.8kbits/s speed=0.0136x elapsed=0:01:40.58    \nframe=   85 fps=0.8 q=45.0 size=     256KiB time=00:00:01.38 bitrate=1516.3kbits/s speed=0.0137x elapsed=0:01:41.13    \nframe=   85 fps=0.8 q=45.0 size=     256KiB time=00:00:01.38 bitrate=1516.3kbits/s speed=0.0136x elapsed=0:01:41.76    \nframe=   85 fps=0.8 q=45.0 size=     256KiB time=00:00:01.38 bitrate=1516.3kbits/s speed=0.0135x elapsed=0:01:42.34    \nframe=   85 fps=0.8 q=45.0 size=     256KiB time=00:00:01.38 bitrate=1516.3kbits/s speed=0.0134x elapsed=0:01:42.94    \nframe=   86 fps=0.8 q=44.9 size=     256KiB time=00:00:01.40 bitrate=1498.2kbits/s speed=0.0135x elapsed=0:01:43.52    \nframe=   86 fps=0.8 q=44.9 size=     256KiB time=00:00:01.40 bitrate=1498.2kbits/s speed=0.0134x elapsed=0:01:44.12    \nframe=   86 fps=0.8 q=44.9 size=     256KiB time=00:00:01.40 bitrate=1498.2kbits/s speed=0.0134x elapsed=0:01:44.76    \nframe=   86 fps=0.8 q=44.9 size=     256KiB time=00:00:01.40 bitrate=1498.2kbits/s speed=0.0133x elapsed=0:01:45.39    \nframe=   86 fps=0.8 q=44.9 size=     256KiB time=00:00:01.40 bitrate=1498.2kbits/s speed=0.0132x elapsed=0:01:46.06    \nframe=   86 fps=0.8 q=44.9 size=     256KiB time=00:00:01.40 bitrate=1498.2kbits/s speed=0.0131x elapsed=0:01:46.73    \nframe=   86 fps=0.8 q=44.9 size=     256KiB time=00:00:01.40 bitrate=1498.2kbits/s speed=0.013x elapsed=0:01:47.30    \nframe=   86 fps=0.8 q=44.9 size=     256KiB time=00:00:01.40 bitrate=1498.2kbits/s speed=0.013x elapsed=0:01:47.94    \nframe=   86 fps=0.8 q=44.9 size=     256KiB time=00:00:01.40 bitrate=1498.2kbits/s speed=0.0129x elapsed=0:01:48.58    \nframe=   86 fps=0.8 q=44.9 size=     256KiB time=00:00:01.40 bitrate=1498.2kbits/s speed=0.0128x elapsed=0:01:49.20    \nframe=   86 fps=0.8 q=44.9 size=     256KiB time=00:00:01.40 bitrate=1498.2kbits/s speed=0.0127x elapsed=0:01:49.80    \nframe=   86 fps=0.8 q=44.9 size=     256KiB time=00:00:01.40 bitrate=1498.2kbits/s speed=0.0127x elapsed=0:01:50.46    \nframe=   87 fps=0.8 q=38.6 size=     256KiB time=00:00:01.41 bitrate=1480.6kbits/s speed=0.0128x elapsed=0:01:51.03    \nframe=   87 fps=0.8 q=38.6 size=     256KiB time=00:00:01.41 bitrate=1480.6kbits/s speed=0.0127x elapsed=0:01:51.62    \nframe=   88 fps=0.8 q=44.2 size=     256KiB time=00:00:01.43 bitrate=1463.4kbits/s speed=0.0128x elapsed=0:01:52.14    \nframe=   88 fps=0.8 q=44.2 size=     256KiB time=00:00:01.43 bitrate=1463.4kbits/s speed=0.0127x elapsed=0:01:52.74    \nframe=   89 fps=0.8 q=45.4 size=     256KiB time=00:00:01.45 bitrate=1446.6kbits/s speed=0.0128x elapsed=0:01:53.29    \nframe=   89 fps=0.8 q=45.4 size=     256KiB time=00:00:01.45 bitrate=1446.6kbits/s speed=0.0127x elapsed=0:01:53.85    \nframe=   89 fps=0.8 q=45.4 size=     256KiB time=00:00:01.45 bitrate=1446.6kbits/s speed=0.0127x elapsed=0:01:54.38    \nframe=   90 fps=0.8 q=45.0 size=     256KiB time=00:00:01.46 bitrate=1430.1kbits/s speed=0.0128x elapsed=0:01:54.90    \nframe=   90 fps=0.8 q=45.0 size=     256KiB time=00:00:01.46 bitrate=1430.1kbits/s speed=0.0127x elapsed=0:01:55.48    \nframe=   90 fps=0.8 q=45.0 size=     256KiB time=00:00:01.46 bitrate=1430.1kbits/s speed=0.0126x elapsed=0:01:56.00    \nframe=   91 fps=0.8 q=45.1 size=     256KiB time=00:00:01.48 bitrate=1414.0kbits/s speed=0.0127x elapsed=0:01:56.54    \nframe=   91 fps=0.8 q=45.1 size=     256KiB time=00:00:01.48 bitrate=1414.0kbits/s speed=0.0127x elapsed=0:01:57.07    \nframe=   91 fps=0.8 q=45.1 size=     256KiB time=00:00:01.48 bitrate=1414.0kbits/s speed=0.0126x elapsed=0:01:57.59    \nframe=   93 fps=0.8 q=44.4 size=     256KiB time=00:00:01.51 bitrate=1383.0kbits/s speed=0.0128x elapsed=0:01:58.13    \nframe=   93 fps=0.8 q=44.4 size=     256KiB time=00:00:01.51 bitrate=1383.0kbits/s speed=0.0128x elapsed=0:01:58.66    \nframe=   93 fps=0.8 q=44.4 size=     256KiB time=00:00:01.51 bitrate=1383.0kbits/s speed=0.0127x elapsed=0:01:59.23    \nframe=   94 fps=0.8 q=45.3 size=     256KiB time=00:00:01.53 bitrate=1367.9kbits/s speed=0.0128x elapsed=0:01:59.76    \nframe=   95 fps=0.8 q=45.0 size=     256KiB time=00:00:01.55 bitrate=1353.2kbits/s speed=0.0129x elapsed=0:02:00.34    \nframe=   95 fps=0.8 q=45.0 size=     256KiB time=00:00:01.55 bitrate=1353.2kbits/s speed=0.0128x elapsed=0:02:00.89    \nframe=   95 fps=0.8 q=45.0 size=     256KiB time=00:00:01.55 bitrate=1353.2kbits/s speed=0.0128x elapsed=0:02:01.45    \nframe=   96 fps=0.8 q=45.1 size=     256KiB time=00:00:01.56 bitrate=1338.8kbits/s speed=0.0128x elapsed=0:02:02.00    \nframe=   96 fps=0.8 q=45.1 size=     256KiB time=00:00:01.56 bitrate=1338.8kbits/s speed=0.0128x elapsed=0:02:02.55    \nframe=   96 fps=0.8 q=45.1 size=     256KiB time=00:00:01.56 bitrate=1338.8kbits/s speed=0.0127x elapsed=0:02:03.08    \nframe=   96 fps=0.8 q=45.1 size=     256KiB time=00:00:01.56 bitrate=1338.8kbits/s speed=0.0127x elapsed=0:02:03.65    \nframe=   97 fps=0.8 q=38.5 size=     256KiB time=00:00:01.58 bitrate=1324.7kbits/s speed=0.0127x elapsed=0:02:04.19    \nframe=   97 fps=0.8 q=38.5 size=     256KiB time=00:00:01.58 bitrate=1324.7kbits/s speed=0.0127x elapsed=0:02:04.72    \nframe=   97 fps=0.8 q=38.5 size=     256KiB time=00:00:01.58 bitrate=1324.7kbits/s speed=0.0126x elapsed=0:02:05.24    \nframe=   98 fps=0.8 q=44.3 size=     256KiB time=00:00:01.60 bitrate=1310.9kbits/s speed=0.0127x elapsed=0:02:05.81    \nframe=   98 fps=0.8 q=44.3 size=     256KiB time=00:00:01.60 bitrate=1310.9kbits/s speed=0.0127x elapsed=0:02:06.34    \nframe=   98 fps=0.8 q=44.3 size=     256KiB time=00:00:01.60 bitrate=1310.9kbits/s speed=0.0126x elapsed=0:02:06.89    \nframe=   98 fps=0.8 q=44.3 size=     256KiB time=00:00:01.60 bitrate=1310.9kbits/s speed=0.0126x elapsed=0:02:07.40    \nframe=   98 fps=0.8 q=44.3 size=     256KiB time=00:00:01.60 bitrate=1310.9kbits/s speed=0.0125x elapsed=0:02:07.93    \nframe=   99 fps=0.8 q=45.4 size=     256KiB time=00:00:01.61 bitrate=1297.4kbits/s speed=0.0126x elapsed=0:02:08.48    \nframe=   99 fps=0.8 q=45.4 size=     256KiB time=00:00:01.61 bitrate=1297.4kbits/s speed=0.0125x elapsed=0:02:09.02    \nframe=   99 fps=0.8 q=45.4 size=     256KiB time=00:00:01.61 bitrate=1297.4kbits/s speed=0.0125x elapsed=0:02:09.58    \nframe=  100 fps=0.8 q=45.2 size=     256KiB time=00:00:01.63 bitrate=1284.2kbits/s speed=0.0126x elapsed=0:02:10.10    \nframe=  100 fps=0.8 q=45.2 size=     256KiB time=00:00:01.63 bitrate=1284.2kbits/s speed=0.0125x elapsed=0:02:10.63    \nframe=  101 fps=0.8 q=45.0 size=     256KiB time=00:00:01.63 bitrate=1284.2kbits/s speed=0.0124x elapsed=0:02:11.24    \nframe=  101 fps=0.8 q=45.0 size=     256KiB time=00:00:01.65 bitrate=1271.2kbits/s speed=0.0125x elapsed=0:02:11.84    \nframe=  101 fps=0.8 q=45.0 size=     256KiB time=00:00:01.65 bitrate=1271.2kbits/s speed=0.0125x elapsed=0:02:12.41    \nframe=  101 fps=0.8 q=45.0 size=     256KiB time=00:00:01.65 bitrate=1271.2kbits/s speed=0.0124x elapsed=0:02:13.02    \nframe=  101 fps=0.8 q=45.0 size=     256KiB time=00:00:01.65 bitrate=1271.2kbits/s speed=0.0123x elapsed=0:02:13.60    \nframe=  102 fps=0.8 q=38.6 size=     256KiB time=00:00:01.66 bitrate=1258.5kbits/s speed=0.0124x elapsed=0:02:14.17    \nframe=  102 fps=0.8 q=38.6 size=     256KiB time=00:00:01.66 bitrate=1258.5kbits/s speed=0.0124x elapsed=0:02:14.69    \nframe=  103 fps=0.8 q=44.0 size=     256KiB time=00:00:01.68 bitrate=1246.0kbits/s speed=0.0124x elapsed=0:02:15.21    \nframe=  103 fps=0.8 q=44.0 size=     256KiB time=00:00:01.68 bitrate=1246.0kbits/s speed=0.0124x elapsed=0:02:15.75    \nframe=  104 fps=0.8 q=45.1 size=     256KiB time=00:00:01.70 bitrate=1233.8kbits/s speed=0.0125x elapsed=0:02:16.28    \nframe=  104 fps=0.8 q=45.1 size=     256KiB time=00:00:01.70 bitrate=1233.8kbits/s speed=0.0124x elapsed=0:02:16.81    \nframe=  104 fps=0.8 q=45.1 size=     256KiB time=00:00:01.70 bitrate=1233.8kbits/s speed=0.0124x elapsed=0:02:17.35    \nframe=  105 fps=0.8 q=45.0 size=     256KiB time=00:00:01.71 bitrate=1221.8kbits/s speed=0.0124x elapsed=0:02:17.90    \nframe=  107 fps=0.8 q=38.5 size=     512KiB time=00:00:01.75 bitrate=2396.9kbits/s speed=0.0126x elapsed=0:02:18.44    \nframe=  107 fps=0.8 q=38.5 size=     512KiB time=00:00:01.75 bitrate=2396.9kbits/s speed=0.0126x elapsed=0:02:19.01    \nframe=  108 fps=0.8 q=44.3 size=     512KiB time=00:00:01.76 bitrate=2374.3kbits/s speed=0.0127x elapsed=0:02:19.54    \nframe=  108 fps=0.8 q=44.3 size=     512KiB time=00:00:01.76 bitrate=2374.3kbits/s speed=0.0126x elapsed=0:02:20.09    \nframe=  108 fps=0.8 q=44.3 size=     512KiB time=00:00:01.76 bitrate=2374.3kbits/s speed=0.0126x elapsed=0:02:20.65    \nframe=  108 fps=0.8 q=44.3 size=     512KiB time=00:00:01.76 bitrate=2374.3kbits/s speed=0.0125x elapsed=0:02:21.28    \nframe=  108 fps=0.8 q=44.3 size=     512KiB time=00:00:01.76 bitrate=2374.3kbits/s speed=0.0125x elapsed=0:02:21.86    \nframe=  109 fps=0.8 q=45.6 size=     512KiB time=00:00:01.78 bitrate=2352.1kbits/s speed=0.0125x elapsed=0:02:22.39    \nframe=  110 fps=0.8 q=45.2 size=     512KiB time=00:00:01.80 bitrate=2330.4kbits/s speed=0.0126x elapsed=0:02:22.93    \nframe=  111 fps=0.8 q=45.2 size=     512KiB time=00:00:01.81 bitrate=2309.0kbits/s speed=0.0127x elapsed=0:02:23.48    \nframe=  111 fps=0.8 q=45.2 size=     512KiB time=00:00:01.81 bitrate=2309.0kbits/s speed=0.0126x elapsed=0:02:24.08    \nframe=  112 fps=0.8 q=38.9 size=     512KiB time=00:00:01.83 bitrate=2288.0kbits/s speed=0.0127x elapsed=0:02:24.60    \nframe=  112 fps=0.8 q=38.9 size=     512KiB time=00:00:01.83 bitrate=2288.0kbits/s speed=0.0126x elapsed=0:02:25.14    \nframe=  113 fps=0.8 q=44.2 size=     512KiB time=00:00:01.85 bitrate=2267.4kbits/s speed=0.0127x elapsed=0:02:25.70    \nframe=  114 fps=0.8 q=45.2 size=     512KiB time=00:00:01.86 bitrate=2247.1kbits/s speed=0.0128x elapsed=0:02:26.23    \nframe=  114 fps=0.8 q=45.2 size=     512KiB time=00:00:01.86 bitrate=2247.1kbits/s speed=0.0127x elapsed=0:02:26.78    \nframe=  114 fps=0.8 q=45.2 size=     512KiB time=00:00:01.86 bitrate=2247.1kbits/s speed=0.0127x elapsed=0:02:27.31    \nframe=  114 fps=0.8 q=45.2 size=     512KiB time=00:00:01.86 bitrate=2247.1kbits/s speed=0.0126x elapsed=0:02:27.84    \nframe=  114 fps=0.8 q=45.2 size=     512KiB time=00:00:01.86 bitrate=2247.1kbits/s speed=0.0126x elapsed=0:02:28.39    \nframe=  114 fps=0.8 q=45.2 size=     512KiB time=00:00:01.86 bitrate=2247.1kbits/s speed=0.0125x elapsed=0:02:28.97    \nframe=  115 fps=0.8 q=45.1 size=     512KiB time=00:00:01.88 bitrate=2227.3kbits/s speed=0.0126x elapsed=0:02:29.50    \nframe=  115 fps=0.8 q=45.1 size=     512KiB time=00:00:01.88 bitrate=2227.3kbits/s speed=0.0126x elapsed=0:02:30.05    \nframe=  116 fps=0.8 q=45.2 size=     512KiB time=00:00:01.90 bitrate=2207.7kbits/s speed=0.0126x elapsed=0:02:30.59    \nframe=  117 fps=0.8 q=38.8 size=     512KiB time=00:00:01.91 bitrate=2188.5kbits/s speed=0.0127x elapsed=0:02:31.13    \nframe=  117 fps=0.8 q=38.8 size=     512KiB time=00:00:01.91 bitrate=2188.5kbits/s speed=0.0126x elapsed=0:02:31.68    \nframe=  117 fps=0.8 q=38.8 size=     512KiB time=00:00:01.91 bitrate=2188.5kbits/s speed=0.0126x elapsed=0:02:32.25    \nframe=  118 fps=0.8 q=44.2 size=     512KiB time=00:00:01.93 bitrate=2169.7kbits/s speed=0.0127x elapsed=0:02:32.83    \nframe=  118 fps=0.8 q=44.2 size=     512KiB time=00:00:01.93 bitrate=2169.7kbits/s speed=0.0126x elapsed=0:02:33.34    \nframe=  119 fps=0.8 q=45.2 size=     512KiB time=00:00:01.95 bitrate=2151.1kbits/s speed=0.0127x elapsed=0:02:33.89    \nframe=  119 fps=0.8 q=45.2 size=     512KiB time=00:00:01.95 bitrate=2151.1kbits/s speed=0.0126x elapsed=0:02:34.49    \nframe=  120 fps=0.8 q=45.1 size=     512KiB time=00:00:01.96 bitrate=2132.9kbits/s speed=0.0127x elapsed=0:02:35.04    \nframe=  120 fps=0.8 q=45.1 size=     512KiB time=00:00:01.96 bitrate=2132.9kbits/s speed=0.0126x elapsed=0:02:35.56    \nframe=  121 fps=0.8 q=45.1 size=     512KiB time=00:00:01.98 bitrate=2115.0kbits/s speed=0.0127x elapsed=0:02:36.12    \nframe=  122 fps=0.8 q=38.9 size=     512KiB time=00:00:02.00 bitrate=2097.3kbits/s speed=0.0128x elapsed=0:02:36.67    \nframe=  122 fps=0.8 q=38.9 size=     512KiB time=00:00:02.00 bitrate=2097.3kbits/s speed=0.0127x elapsed=0:02:37.20    \nframe=  122 fps=0.8 q=38.9 size=     512KiB time=00:00:02.00 bitrate=2097.3kbits/s speed=0.0127x elapsed=0:02:37.72    \nframe=  123 fps=0.8 q=44.1 size=     512KiB time=00:00:02.01 bitrate=2080.0kbits/s speed=0.0127x elapsed=0:02:38.25    \nframe=  123 fps=0.8 q=44.1 size=     512KiB time=00:00:02.01 bitrate=2080.0kbits/s speed=0.0127x elapsed=0:02:38.76    \nframe=  124 fps=0.8 q=45.4 size=     512KiB time=00:00:02.03 bitrate=2062.9kbits/s speed=0.0128x elapsed=0:02:39.30    \nframe=  124 fps=0.8 q=45.4 size=     512KiB time=00:00:02.03 bitrate=2062.9kbits/s speed=0.0127x elapsed=0:02:39.86    \nframe=  124 fps=0.8 q=45.4 size=     512KiB time=00:00:02.03 bitrate=2062.9kbits/s speed=0.0127x elapsed=0:02:40.42    \nframe=  124 fps=0.8 q=45.4 size=     512KiB time=00:00:02.03 bitrate=2062.9kbits/s speed=0.0126x elapsed=0:02:40.97    \nframe=  124 fps=0.8 q=45.4 size=     512KiB time=00:00:02.03 bitrate=2062.9kbits/s speed=0.0126x elapsed=0:02:41.53    \nframe=  125 fps=0.8 q=45.2 size=     512KiB time=00:00:02.05 bitrate=2046.2kbits/s speed=0.0126x elapsed=0:02:42.11    \nframe=  126 fps=0.8 q=45.0 size=     512KiB time=00:00:02.06 bitrate=2029.7kbits/s speed=0.0127x elapsed=0:02:42.64    \nframe=  126 fps=0.8 q=45.0 size=     512KiB time=00:00:02.06 bitrate=2029.7kbits/s speed=0.0127x elapsed=0:02:43.19    \nframe=  127 fps=0.8 q=38.8 size=     512KiB time=00:00:02.08 bitrate=2013.4kbits/s speed=0.0127x elapsed=0:02:43.78    \nframe=  127 fps=0.8 q=38.8 size=     512KiB time=00:00:02.08 bitrate=2013.4kbits/s speed=0.0127x elapsed=0:02:44.40    \nframe=  128 fps=0.8 q=44.1 size=     512KiB time=00:00:02.10 bitrate=1997.5kbits/s speed=0.0127x elapsed=0:02:44.93    \nframe=  128 fps=0.8 q=44.1 size=     512KiB time=00:00:02.10 bitrate=1997.5kbits/s speed=0.0127x elapsed=0:02:45.55    \nframe=  128 fps=0.8 q=44.1 size=     512KiB time=00:00:02.10 bitrate=1997.5kbits/s speed=0.0126x elapsed=0:02:46.25    \nframe=  128 fps=0.8 q=44.1 size=     512KiB time=00:00:02.10 bitrate=1997.5kbits/s speed=0.0126x elapsed=0:02:46.90    \nframe=  128 fps=0.8 q=44.1 size=     512KiB time=00:00:02.10 bitrate=1997.5kbits/s speed=0.0125x elapsed=0:02:47.49    \nframe=  128 fps=0.8 q=44.1 size=     512KiB time=00:00:02.10 bitrate=1997.5kbits/s speed=0.0125x elapsed=0:02:48.07    \nframe=  128 fps=0.8 q=44.1 size=     512KiB time=00:00:02.10 bitrate=1997.5kbits/s speed=0.0125x elapsed=0:02:48.65    \nframe=  128 fps=0.8 q=44.1 size=     512KiB time=00:00:02.10 bitrate=1997.5kbits/s speed=0.0124x elapsed=0:02:49.29    \nframe=  128 fps=0.8 q=44.1 size=     512KiB time=00:00:02.10 bitrate=1997.5kbits/s speed=0.0124x elapsed=0:02:49.94    \nframe=  128 fps=0.8 q=44.1 size=     512KiB time=00:00:02.10 bitrate=1997.5kbits/s speed=0.0123x elapsed=0:02:50.57    \nframe=  128 fps=0.7 q=44.1 size=     512KiB time=00:00:02.10 bitrate=1997.5kbits/s speed=0.0123x elapsed=0:02:51.19    \nframe=  129 fps=0.8 q=45.0 size=     512KiB time=00:00:02.11 bitrate=1981.7kbits/s speed=0.0123x elapsed=0:02:51.72    \nframe=  129 fps=0.7 q=45.0 size=     512KiB time=00:00:02.11 bitrate=1981.7kbits/s speed=0.0123x elapsed=0:02:52.24    \nframe=  129 fps=0.7 q=45.0 size=     512KiB time=00:00:02.11 bitrate=1981.7kbits/s speed=0.0122x elapsed=0:02:52.81    \nframe=  129 fps=0.7 q=45.0 size=     512KiB time=00:00:02.11 bitrate=1981.7kbits/s speed=0.0122x elapsed=0:02:53.38    \nframe=  130 fps=0.7 q=45.0 size=     512KiB time=00:00:02.13 bitrate=1966.2kbits/s speed=0.0123x elapsed=0:02:53.91    \nframe=  131 fps=0.8 q=45.1 size=     512KiB time=00:00:02.15 bitrate=1951.0kbits/s speed=0.0123x elapsed=0:02:54.49    \nframe=  131 fps=0.7 q=45.1 size=     512KiB time=00:00:02.15 bitrate=1951.0kbits/s speed=0.0123x elapsed=0:02:55.00    \nframe=  131 fps=0.7 q=45.1 size=     512KiB time=00:00:02.15 bitrate=1951.0kbits/s speed=0.0122x elapsed=0:02:55.53    \nframe=  131 fps=0.7 q=45.1 size=     512KiB time=00:00:02.15 bitrate=1951.0kbits/s speed=0.0122x elapsed=0:02:56.06    \nframe=  131 fps=0.7 q=45.1 size=     512KiB time=00:00:02.15 bitrate=1951.0kbits/s speed=0.0122x elapsed=0:02:56.59    \nframe=  133 fps=0.8 q=43.7 size=     512KiB time=00:00:02.18 bitrate=1921.2kbits/s speed=0.0123x elapsed=0:02:57.11    \nframe=  134 fps=0.8 q=45.0 size=     512KiB time=00:00:02.20 bitrate=1906.7kbits/s speed=0.0124x elapsed=0:02:57.63    \nframe=  135 fps=0.8 q=44.7 size=     512KiB time=00:00:02.21 bitrate=1892.3kbits/s speed=0.0124x elapsed=0:02:58.17    \nframe=  135 fps=0.8 q=44.7 size=     512KiB time=00:00:02.21 bitrate=1892.3kbits/s speed=0.0124x elapsed=0:02:58.69    \nframe=  136 fps=0.8 q=44.9 size=     512KiB time=00:00:02.23 bitrate=1878.2kbits/s speed=0.0125x elapsed=0:02:59.23    \nframe=  138 fps=0.8 q=43.7 size=     512KiB time=00:00:02.26 bitrate=1850.6kbits/s speed=0.0126x elapsed=0:02:59.75    \nframe=  139 fps=0.8 q=45.1 size=     512KiB time=00:00:02.28 bitrate=1837.1kbits/s speed=0.0127x elapsed=0:03:00.28    \nframe=  139 fps=0.8 q=45.1 size=     512KiB time=00:00:02.28 bitrate=1837.1kbits/s speed=0.0126x elapsed=0:03:00.81    \nframe=  140 fps=0.8 q=44.8 size=     512KiB time=00:00:02.30 bitrate=1823.8kbits/s speed=0.0127x elapsed=0:03:01.33    \nframe=  141 fps=0.8 q=44.6 size=     512KiB time=00:00:02.31 bitrate=1810.6kbits/s speed=0.0127x elapsed=0:03:01.85    \nframe=  141 fps=0.8 q=44.6 size=     512KiB time=00:00:02.31 bitrate=1810.6kbits/s speed=0.0127x elapsed=0:03:02.35    \nframe=  142 fps=0.8 q=37.9 size=     512KiB time=00:00:02.33 bitrate=1797.7kbits/s speed=0.0128x elapsed=0:03:02.87    \nframe=  144 fps=0.8 q=44.9 size=     512KiB time=00:00:02.36 bitrate=1772.4kbits/s speed=0.0129x elapsed=0:03:03.40    \nframe=  144 fps=0.8 q=44.9 size=     512KiB time=00:00:02.36 bitrate=1772.4kbits/s speed=0.0129x elapsed=0:03:03.96    \nframe=  145 fps=0.8 q=44.6 size=     512KiB time=00:00:02.38 bitrate=1760.0kbits/s speed=0.0129x elapsed=0:03:04.49    \nframe=  146 fps=0.8 q=45.1 size=     512KiB time=00:00:02.40 bitrate=1747.8kbits/s speed=0.013x elapsed=0:03:05.01    \nframe=  147 fps=0.8 q=38.5 size=     512KiB time=00:00:02.41 bitrate=1735.7kbits/s speed=0.013x elapsed=0:03:05.54    \nframe=  147 fps=0.8 q=38.5 size=     512KiB time=00:00:02.41 bitrate=1735.7kbits/s speed=0.013x elapsed=0:03:06.08    \nframe=  148 fps=0.8 q=43.8 size=     512KiB time=00:00:02.43 bitrate=1723.8kbits/s speed=0.013x elapsed=0:03:06.61    \nframe=  149 fps=0.8 q=45.2 size=     512KiB time=00:00:02.45 bitrate=1712.1kbits/s speed=0.0131x elapsed=0:03:07.15    \nframe=  150 fps=0.8 q=44.9 size=     512KiB time=00:00:02.46 bitrate=1700.5kbits/s speed=0.0131x elapsed=0:03:07.71    \nframe=  150 fps=0.8 q=44.9 size=     512KiB time=00:00:02.46 bitrate=1700.5kbits/s speed=0.0131x elapsed=0:03:08.25    \nframe=  151 fps=0.8 q=45.1 size=     512KiB time=00:00:02.48 bitrate=1689.1kbits/s speed=0.0132x elapsed=0:03:08.77    \nframe=  151 fps=0.8 q=45.1 size=     512KiB time=00:00:02.48 bitrate=1689.1kbits/s speed=0.0131x elapsed=0:03:09.30    \nframe=  153 fps=0.8 q=43.7 size=     512KiB time=00:00:02.51 bitrate=1666.8kbits/s speed=0.0133x elapsed=0:03:09.83    \nframe=  154 fps=0.8 q=45.1 size=     512KiB time=00:00:02.53 bitrate=1655.8kbits/s speed=0.0133x elapsed=0:03:10.37    \nframe=  154 fps=0.8 q=45.1 size=     512KiB time=00:00:02.53 bitrate=1655.8kbits/s speed=0.0133x elapsed=0:03:10.87    \nframe=  154 fps=0.8 q=45.1 size=     512KiB time=00:00:02.53 bitrate=1655.8kbits/s speed=0.0132x elapsed=0:03:11.39    \nframe=  154 fps=0.8 q=45.1 size=     512KiB time=00:00:02.53 bitrate=1655.8kbits/s speed=0.0132x elapsed=0:03:11.91    \nframe=  155 fps=0.8 q=44.5 size=     512KiB time=00:00:02.55 bitrate=1645.0kbits/s speed=0.0133x elapsed=0:03:12.43    \nframe=  156 fps=0.8 q=44.9 size=     512KiB time=00:00:02.56 bitrate=1634.3kbits/s speed=0.0133x elapsed=0:03:12.96    \nframe=  156 fps=0.8 q=44.9 size=     512KiB time=00:00:02.56 bitrate=1634.3kbits/s speed=0.0133x elapsed=0:03:13.53    \nframe=  156 fps=0.8 q=44.9 size=     512KiB time=00:00:02.56 bitrate=1634.3kbits/s speed=0.0132x elapsed=0:03:14.06    \nframe=  156 fps=0.8 q=44.9 size=     512KiB time=00:00:02.56 bitrate=1634.3kbits/s speed=0.0132x elapsed=0:03:14.65    \nframe=  156 fps=0.8 q=44.9 size=     512KiB time=00:00:02.56 bitrate=1634.3kbits/s speed=0.0131x elapsed=0:03:15.22    \nframe=  157 fps=0.8 q=37.9 size=     512KiB time=00:00:02.58 bitrate=1623.7kbits/s speed=0.0132x elapsed=0:03:15.79    \nframe=  157 fps=0.8 q=37.9 size=     512KiB time=00:00:02.58 bitrate=1623.7kbits/s speed=0.0132x elapsed=0:03:16.35    \nframe=  158 fps=0.8 q=43.6 size=     768KiB time=00:00:02.60 bitrate=2419.9kbits/s speed=0.0132x elapsed=0:03:16.86    \nframe=  158 fps=0.8 q=43.6 size=     768KiB time=00:00:02.60 bitrate=2419.9kbits/s speed=0.0132x elapsed=0:03:17.38    \nframe=  158 fps=0.8 q=43.6 size=     768KiB time=00:00:02.60 bitrate=2419.9kbits/s speed=0.0131x elapsed=0:03:17.92    \nframe=  159 fps=0.8 q=45.0 size=     768KiB time=00:00:02.61 bitrate=2404.5kbits/s speed=0.0132x elapsed=0:03:18.47    \nframe=  159 fps=0.8 q=45.0 size=     768KiB time=00:00:02.61 bitrate=2404.5kbits/s speed=0.0131x elapsed=0:03:19.02    \nframe=  160 fps=0.8 q=44.7 size=     768KiB time=00:00:02.63 bitrate=2389.3kbits/s speed=0.0132x elapsed=0:03:19.54    \nframe=  160 fps=0.8 q=44.7 size=     768KiB time=00:00:02.63 bitrate=2389.3kbits/s speed=0.0132x elapsed=0:03:20.07    \nframe=  160 fps=0.8 q=44.7 size=     768KiB time=00:00:02.63 bitrate=2389.3kbits/s speed=0.0131x elapsed=0:03:20.60    \nframe=  160 fps=0.8 q=44.7 size=     768KiB time=00:00:02.63 bitrate=2389.3kbits/s speed=0.0131x elapsed=0:03:21.13    \nframe=  160 fps=0.8 q=44.7 size=     768KiB time=00:00:02.63 bitrate=2389.3kbits/s speed=0.0131x elapsed=0:03:21.68    \nframe=  160 fps=0.8 q=44.7 size=     768KiB time=00:00:02.63 bitrate=2389.3kbits/s speed=0.013x elapsed=0:03:22.20    \nframe=  161 fps=0.8 q=44.9 size=     768KiB time=00:00:02.65 bitrate=2374.3kbits/s speed=0.0131x elapsed=0:03:22.74    \nframe=  161 fps=0.8 q=44.9 size=     768KiB time=00:00:02.65 bitrate=2374.3kbits/s speed=0.013x elapsed=0:03:23.27    \nframe=  162 fps=0.8 q=38.3 size=     768KiB time=00:00:02.66 bitrate=2359.4kbits/s speed=0.0131x elapsed=0:03:23.78    \nframe=  162 fps=0.8 q=38.3 size=     768KiB time=00:00:02.66 bitrate=2359.4kbits/s speed=0.0131x elapsed=0:03:24.30    \nframe=  163 fps=0.8 q=43.7 size=     768KiB time=00:00:02.68 bitrate=2344.8kbits/s speed=0.0131x elapsed=0:03:24.84    \nframe=  163 fps=0.8 q=43.7 size=     768KiB time=00:00:02.68 bitrate=2344.8kbits/s speed=0.0131x elapsed=0:03:25.36    \nframe=  163 fps=0.8 q=43.7 size=     768KiB time=00:00:02.68 bitrate=2344.8kbits/s speed=0.013x elapsed=0:03:25.89    \nframe=  164 fps=0.8 q=45.1 size=     768KiB time=00:00:02.70 bitrate=2330.3kbits/s speed=0.0131x elapsed=0:03:26.43    \nframe=  164 fps=0.8 q=45.1 size=     768KiB time=00:00:02.70 bitrate=2330.3kbits/s speed=0.013x elapsed=0:03:26.97    \nframe=  164 fps=0.8 q=45.1 size=     768KiB time=00:00:02.70 bitrate=2330.3kbits/s speed=0.013x elapsed=0:03:27.52    \nframe=  164 fps=0.8 q=45.1 size=     768KiB time=00:00:02.70 bitrate=2330.3kbits/s speed=0.013x elapsed=0:03:28.04    \nframe=  164 fps=0.8 q=45.1 size=     768KiB time=00:00:02.70 bitrate=2330.3kbits/s speed=0.0129x elapsed=0:03:28.57    \nframe=  165 fps=0.8 q=44.8 size=     768KiB time=00:00:02.71 bitrate=2316.0kbits/s speed=0.013x elapsed=0:03:29.10    \nframe=  165 fps=0.8 q=44.8 size=     768KiB time=00:00:02.71 bitrate=2316.0kbits/s speed=0.013x elapsed=0:03:29.67    \nframe=  165 fps=0.8 q=44.8 size=     768KiB time=00:00:02.71 bitrate=2316.0kbits/s speed=0.0129x elapsed=0:03:30.23    \nframe=  165 fps=0.8 q=44.8 size=     768KiB time=00:00:02.71 bitrate=2316.0kbits/s speed=0.0129x elapsed=0:03:30.83    \nframe=  165 fps=0.8 q=44.8 size=     768KiB time=00:00:02.71 bitrate=2316.0kbits/s speed=0.0129x elapsed=0:03:31.40    \nframe=  165 fps=0.8 q=44.8 size=     768KiB time=00:00:02.71 bitrate=2316.0kbits/s speed=0.0128x elapsed=0:03:31.92    \nframe=  166 fps=0.8 q=44.7 size=     768KiB time=00:00:02.73 bitrate=2301.9kbits/s speed=0.0129x elapsed=0:03:32.45    \nframe=  166 fps=0.8 q=44.7 size=     768KiB time=00:00:02.73 bitrate=2301.9kbits/s speed=0.0128x elapsed=0:03:32.99    \nframe=  166 fps=0.8 q=44.7 size=     768KiB time=00:00:02.73 bitrate=2301.9kbits/s speed=0.0128x elapsed=0:03:33.57    \nframe=  167 fps=0.8 q=37.9 size=     768KiB time=00:00:02.75 bitrate=2287.9kbits/s speed=0.0128x elapsed=0:03:34.15    \nframe=  168 fps=0.8 q=43.6 size=     768KiB time=00:00:02.75 bitrate=2287.9kbits/s speed=0.0128x elapsed=0:03:34.70    \nframe=  168 fps=0.8 q=43.6 size=     768KiB time=00:00:02.76 bitrate=2274.1kbits/s speed=0.0129x elapsed=0:03:35.25    \nframe=  169 fps=0.8 q=44.8 size=     768KiB time=00:00:02.78 bitrate=2260.5kbits/s speed=0.0129x elapsed=0:03:35.76    \nframe=  169 fps=0.8 q=44.8 size=     768KiB time=00:00:02.78 bitrate=2260.5kbits/s speed=0.0129x elapsed=0:03:36.34    \nframe=  169 fps=0.8 q=44.8 size=     768KiB time=00:00:02.78 bitrate=2260.5kbits/s speed=0.0128x elapsed=0:03:36.90    \nframe=  169 fps=0.8 q=44.8 size=     768KiB time=00:00:02.78 bitrate=2260.5kbits/s speed=0.0128x elapsed=0:03:37.47    \nframe=  170 fps=0.8 q=44.3 size=     768KiB time=00:00:02.80 bitrate=2247.1kbits/s speed=0.0128x elapsed=0:03:38.01    \nframe=  170 fps=0.8 q=44.3 size=     768KiB time=00:00:02.80 bitrate=2247.1kbits/s speed=0.0128x elapsed=0:03:38.56    \nframe=  170 fps=0.8 q=44.3 size=     768KiB time=00:00:02.80 bitrate=2247.1kbits/s speed=0.0128x elapsed=0:03:39.10    \nframe=  171 fps=0.8 q=44.6 size=     768KiB time=00:00:02.81 bitrate=2233.8kbits/s speed=0.0128x elapsed=0:03:39.66    \nframe=  171 fps=0.8 q=44.6 size=     768KiB time=00:00:02.81 bitrate=2233.8kbits/s speed=0.0128x elapsed=0:03:40.19    \nframe=  171 fps=0.8 q=44.6 size=     768KiB time=00:00:02.81 bitrate=2233.8kbits/s speed=0.0128x elapsed=0:03:40.74    \nframe=  172 fps=0.8 q=38.1 size=     768KiB time=00:00:02.83 bitrate=2220.6kbits/s speed=0.0128x elapsed=0:03:41.29    \nframe=  172 fps=0.8 q=38.1 size=     768KiB time=00:00:02.83 bitrate=2220.6kbits/s speed=0.0128x elapsed=0:03:41.84    \nframe=  173 fps=0.8 q=43.6 size=     768KiB time=00:00:02.85 bitrate=2207.7kbits/s speed=0.0128x elapsed=0:03:42.37    \nframe=  173 fps=0.8 q=43.6 size=     768KiB time=00:00:02.85 bitrate=2207.7kbits/s speed=0.0128x elapsed=0:03:42.95    \nframe=  173 fps=0.8 q=43.6 size=     768KiB time=00:00:02.85 bitrate=2207.7kbits/s speed=0.0128x elapsed=0:03:43.48    \nframe=  173 fps=0.8 q=43.6 size=     768KiB time=00:00:02.85 bitrate=2207.7kbits/s speed=0.0127x elapsed=0:03:44.01    \nframe=  173 fps=0.8 q=43.6 size=     768KiB time=00:00:02.85 bitrate=2207.7kbits/s speed=0.0127x elapsed=0:03:44.60    \nframe=  173 fps=0.8 q=43.6 size=     768KiB time=00:00:02.85 bitrate=2207.7kbits/s speed=0.0127x elapsed=0:03:45.15    \nframe=  174 fps=0.8 q=44.9 size=     768KiB time=00:00:02.86 bitrate=2194.8kbits/s speed=0.0127x elapsed=0:03:45.68    \nframe=  174 fps=0.8 q=44.9 size=     768KiB time=00:00:02.86 bitrate=2194.8kbits/s speed=0.0127x elapsed=0:03:46.24    \nframe=  174 fps=0.8 q=44.9 size=     768KiB time=00:00:02.86 bitrate=2194.8kbits/s speed=0.0126x elapsed=0:03:46.80    \nframe=  174 fps=0.8 q=44.9 size=     768KiB time=00:00:02.86 bitrate=2194.8kbits/s speed=0.0126x elapsed=0:03:47.34    \nframe=  175 fps=0.8 q=44.6 size=     768KiB time=00:00:02.88 bitrate=2182.1kbits/s speed=0.0127x elapsed=0:03:47.88    \nframe=  175 fps=0.8 q=44.6 size=     768KiB time=00:00:02.88 bitrate=2182.1kbits/s speed=0.0126x elapsed=0:03:48.40    \nframe=  176 fps=0.8 q=44.7 size=     768KiB time=00:00:02.90 bitrate=2169.6kbits/s speed=0.0127x elapsed=0:03:48.93    \nframe=  176 fps=0.8 q=44.7 size=     768KiB time=00:00:02.90 bitrate=2169.6kbits/s speed=0.0126x elapsed=0:03:49.48    \nframe=  176 fps=0.8 q=44.7 size=     768KiB time=00:00:02.90 bitrate=2169.6kbits/s speed=0.0126x elapsed=0:03:50.04    \nframe=  176 fps=0.8 q=44.7 size=     768KiB time=00:00:02.90 bitrate=2169.6kbits/s speed=0.0126x elapsed=0:03:50.62    \nframe=  176 fps=0.8 q=44.7 size=     768KiB time=00:00:02.90 bitrate=2169.6kbits/s speed=0.0125x elapsed=0:03:51.16    \nframe=  176 fps=0.8 q=44.7 size=     768KiB time=00:00:02.90 bitrate=2169.6kbits/s speed=0.0125x elapsed=0:03:51.69    \nframe=  176 fps=0.8 q=44.7 size=     768KiB time=00:00:02.90 bitrate=2169.6kbits/s speed=0.0125x elapsed=0:03:52.28    \nframe=  177 fps=0.8 q=37.7 size=     768KiB time=00:00:02.91 bitrate=2157.2kbits/s speed=0.0125x elapsed=0:03:52.81    \nframe=  177 fps=0.8 q=37.7 size=     768KiB time=00:00:02.91 bitrate=2157.2kbits/s speed=0.0125x elapsed=0:03:53.36    \nframe=  177 fps=0.8 q=37.7 size=     768KiB time=00:00:02.91 bitrate=2157.2kbits/s speed=0.0125x elapsed=0:03:53.93    \nframe=  178 fps=0.8 q=43.5 size=     768KiB time=00:00:02.93 bitrate=2144.9kbits/s speed=0.0125x elapsed=0:03:54.48    \nframe=  178 fps=0.8 q=43.5 size=     768KiB time=00:00:02.93 bitrate=2144.9kbits/s speed=0.0125x elapsed=0:03:55.03    \nframe=  178 fps=0.8 q=43.5 size=     768KiB time=00:00:02.93 bitrate=2144.9kbits/s speed=0.0125x elapsed=0:03:55.56    \nframe=  179 fps=0.8 q=45.0 size=     768KiB time=00:00:02.95 bitrate=2132.8kbits/s speed=0.0125x elapsed=0:03:56.13    \nframe=  179 fps=0.8 q=45.0 size=     768KiB time=00:00:02.95 bitrate=2132.8kbits/s speed=0.0125x elapsed=0:03:56.66    \nframe=  180 fps=0.8 q=44.4 size=     768KiB time=00:00:02.96 bitrate=2120.8kbits/s speed=0.0125x elapsed=0:03:57.19    \nframe=  180 fps=0.8 q=44.4 size=     768KiB time=00:00:02.96 bitrate=2120.8kbits/s speed=0.0125x elapsed=0:03:57.72    \nframe=  181 fps=0.8 q=44.3 size=     768KiB time=00:00:02.98 bitrate=2109.0kbits/s speed=0.0125x elapsed=0:03:58.34    \nframe=  181 fps=0.8 q=44.3 size=     768KiB time=00:00:02.98 bitrate=2109.0kbits/s speed=0.0125x elapsed=0:03:58.90    \nframe=  181 fps=0.8 q=44.3 size=     768KiB time=00:00:02.98 bitrate=2109.0kbits/s speed=0.0125x elapsed=0:03:59.52    \nframe=  181 fps=0.8 q=44.3 size=     768KiB time=00:00:02.98 bitrate=2109.0kbits/s speed=0.0124x elapsed=0:04:00.14    \nframe=  181 fps=0.8 q=44.3 size=     768KiB time=00:00:02.98 bitrate=2109.0kbits/s speed=0.0124x elapsed=0:04:00.73    \nframe=  181 fps=0.8 q=44.3 size=     768KiB time=00:00:02.98 bitrate=2109.0kbits/s speed=0.0124x elapsed=0:04:01.27    \nframe=  182 fps=0.8 q=38.1 size=     768KiB time=00:00:03.00 bitrate=2097.3kbits/s speed=0.0124x elapsed=0:04:01.79    \nframe=  183 fps=0.8 q=43.3 size=     768KiB time=00:00:03.01 bitrate=2085.7kbits/s speed=0.0124x elapsed=0:04:02.31    \nframe=  183 fps=0.8 q=43.3 size=     768KiB time=00:00:03.01 bitrate=2085.7kbits/s speed=0.0124x elapsed=0:04:02.85    \nframe=  183 fps=0.8 q=43.3 size=     768KiB time=00:00:03.01 bitrate=2085.7kbits/s speed=0.0124x elapsed=0:04:03.36    \nframe=  184 fps=0.8 q=44.4 size=     768KiB time=00:00:03.03 bitrate=2074.2kbits/s speed=0.0124x elapsed=0:04:03.88    \nframe=  185 fps=0.8 q=43.8 size=     768KiB time=00:00:03.05 bitrate=2062.9kbits/s speed=0.0125x elapsed=0:04:04.41    \nframe=  185 fps=0.8 q=43.8 size=     768KiB time=00:00:03.05 bitrate=2062.9kbits/s speed=0.0125x elapsed=0:04:04.96    \nframe=  186 fps=0.8 q=44.2 size=     768KiB time=00:00:03.06 bitrate=2051.7kbits/s speed=0.0125x elapsed=0:04:05.47    \nframe=  187 fps=0.8 q=37.9 size=     768KiB time=00:00:03.08 bitrate=2040.6kbits/s speed=0.0125x elapsed=0:04:05.98    \nframe=  188 fps=0.8 q=43.2 size=     768KiB time=00:00:03.10 bitrate=2029.6kbits/s speed=0.0126x elapsed=0:04:06.51    \nframe=  189 fps=0.8 q=44.4 size=     768KiB time=00:00:03.11 bitrate=2018.8kbits/s speed=0.0126x elapsed=0:04:07.03    \nframe=  189 fps=0.8 q=44.4 size=     768KiB time=00:00:03.11 bitrate=2018.8kbits/s speed=0.0126x elapsed=0:04:07.55    \nframe=  191 fps=0.8 q=44.3 size=     768KiB time=00:00:03.15 bitrate=1997.4kbits/s speed=0.0127x elapsed=0:04:08.08    \nframe=  191 fps=0.8 q=44.3 size=     768KiB time=00:00:03.15 bitrate=1997.4kbits/s speed=0.0127x elapsed=0:04:08.61    \nframe=  192 fps=0.8 q=37.4 size=     768KiB time=00:00:03.16 bitrate=1986.9kbits/s speed=0.0127x elapsed=0:04:09.12    \nframe=  193 fps=0.8 q=42.9 size=     768KiB time=00:00:03.18 bitrate=1976.5kbits/s speed=0.0128x elapsed=0:04:09.65    \nframe=  194 fps=0.8 q=44.3 size=     768KiB time=00:00:03.20 bitrate=1966.2kbits/s speed=0.0128x elapsed=0:04:10.17    \nframe=  195 fps=0.8 q=44.0 size=     768KiB time=00:00:03.21 bitrate=1956.0kbits/s speed=0.0128x elapsed=0:04:10.69    \nframe=  195 fps=0.8 q=44.0 size=     768KiB time=00:00:03.21 bitrate=1956.0kbits/s speed=0.0128x elapsed=0:04:11.21    \nframe=  195 fps=0.8 q=44.0 size=     768KiB time=00:00:03.21 bitrate=1956.0kbits/s speed=0.0128x elapsed=0:04:11.74    \nframe=  196 fps=0.8 q=43.9 size=     768KiB time=00:00:03.23 bitrate=1945.9kbits/s speed=0.0128x elapsed=0:04:12.30    \nframe=  196 fps=0.8 q=43.9 size=     768KiB time=00:00:03.23 bitrate=1945.9kbits/s speed=0.0128x elapsed=0:04:12.84    \nframe=  197 fps=0.8 q=37.8 size=     768KiB time=00:00:03.25 bitrate=1935.9kbits/s speed=0.0128x elapsed=0:04:13.35    \nframe=  197 fps=0.8 q=37.8 size=     768KiB time=00:00:03.25 bitrate=1935.9kbits/s speed=0.0128x elapsed=0:04:13.87    \nframe=  198 fps=0.8 q=42.8 size=     768KiB time=00:00:03.26 bitrate=1926.1kbits/s speed=0.0128x elapsed=0:04:14.40    \nframe=  198 fps=0.8 q=42.8 size=     768KiB time=00:00:03.26 bitrate=1926.1kbits/s speed=0.0128x elapsed=0:04:14.92    \nframe=  199 fps=0.8 q=43.9 size=     768KiB time=00:00:03.28 bitrate=1916.3kbits/s speed=0.0129x elapsed=0:04:15.47    \nframe=  199 fps=0.8 q=43.9 size=     768KiB time=00:00:03.28 bitrate=1916.3kbits/s speed=0.0128x elapsed=0:04:16.00    \nframe=  199 fps=0.8 q=43.9 size=     768KiB time=00:00:03.28 bitrate=1916.3kbits/s speed=0.0128x elapsed=0:04:16.55    \nframe=  200 fps=0.8 q=43.8 size=     768KiB time=00:00:03.30 bitrate=1906.6kbits/s speed=0.0128x elapsed=0:04:17.08    \nframe=  201 fps=0.8 q=43.9 size=     768KiB time=00:00:03.31 bitrate=1897.0kbits/s speed=0.0129x elapsed=0:04:17.63    \nframe=  202 fps=0.8 q=37.8 size=     768KiB time=00:00:03.33 bitrate=1887.5kbits/s speed=0.0129x elapsed=0:04:18.17    \nframe=  202 fps=0.8 q=37.8 size=     768KiB time=00:00:03.33 bitrate=1887.5kbits/s speed=0.0129x elapsed=0:04:18.70    \nframe=  203 fps=0.8 q=43.0 size=     768KiB time=00:00:03.35 bitrate=1878.2kbits/s speed=0.0129x elapsed=0:04:19.22    \nframe=  203 fps=0.8 q=43.0 size=     768KiB time=00:00:03.35 bitrate=1878.2kbits/s speed=0.0129x elapsed=0:04:19.75    \nframe=  204 fps=0.8 q=44.1 size=     768KiB time=00:00:03.36 bitrate=1868.9kbits/s speed=0.0129x elapsed=0:04:20.28    \nframe=  205 fps=0.8 q=43.9 size=     768KiB time=00:00:03.38 bitrate=1859.6kbits/s speed=0.013x elapsed=0:04:20.82    \nframe=  205 fps=0.8 q=43.9 size=     768KiB time=00:00:03.38 bitrate=1859.6kbits/s speed=0.0129x elapsed=0:04:21.35    \nframe=  206 fps=0.8 q=43.9 size=     768KiB time=00:00:03.40 bitrate=1850.5kbits/s speed=0.013x elapsed=0:04:21.88    \nframe=  207 fps=0.8 q=38.0 size=     768KiB time=00:00:03.41 bitrate=1841.5kbits/s speed=0.013x elapsed=0:04:22.42    \nframe=  207 fps=0.8 q=38.0 size=     768KiB time=00:00:03.41 bitrate=1841.5kbits/s speed=0.013x elapsed=0:04:22.96    \nframe=  208 fps=0.8 q=42.9 size=    1024KiB time=00:00:03.43 bitrate=2443.4kbits/s speed=0.013x elapsed=0:04:23.54    \nframe=  208 fps=0.8 q=42.9 size=    1024KiB time=00:00:03.43 bitrate=2443.4kbits/s speed=0.013x elapsed=0:04:24.18    \nframe=  208 fps=0.8 q=42.9 size=    1024KiB time=00:00:03.43 bitrate=2443.4kbits/s speed=0.013x elapsed=0:04:24.75    \nframe=  209 fps=0.8 q=44.0 size=    1024KiB time=00:00:03.45 bitrate=2431.6kbits/s speed=0.013x elapsed=0:04:25.36    \nframe=  209 fps=0.8 q=44.0 size=    1024KiB time=00:00:03.45 bitrate=2431.6kbits/s speed=0.013x elapsed=0:04:25.95    \nframe=  209 fps=0.8 q=44.0 size=    1024KiB time=00:00:03.45 bitrate=2431.6kbits/s speed=0.0129x elapsed=0:04:26.47    \nframe=  209 fps=0.8 q=44.0 size=    1024KiB time=00:00:03.45 bitrate=2431.6kbits/s speed=0.0129x elapsed=0:04:26.98    \nframe=  209 fps=0.8 q=44.0 size=    1024KiB time=00:00:03.45 bitrate=2431.6kbits/s speed=0.0129x elapsed=0:04:27.52    \nframe=  210 fps=0.8 q=43.6 size=    1024KiB time=00:00:03.46 bitrate=2419.9kbits/s speed=0.0129x elapsed=0:04:28.06    \nframe=  210 fps=0.8 q=43.6 size=    1024KiB time=00:00:03.46 bitrate=2419.9kbits/s speed=0.0129x elapsed=0:04:28.60    \nframe=  212 fps=0.8 q=38.0 size=    1024KiB time=00:00:03.50 bitrate=2396.8kbits/s speed=0.013x elapsed=0:04:29.14    \nframe=  212 fps=0.8 q=38.0 size=    1024KiB time=00:00:03.50 bitrate=2396.8kbits/s speed=0.013x elapsed=0:04:29.70    \nframe=  212 fps=0.8 q=38.0 size=    1024KiB time=00:00:03.50 bitrate=2396.8kbits/s speed=0.013x elapsed=0:04:30.25    \nframe=  212 fps=0.8 q=38.0 size=    1024KiB time=00:00:03.50 bitrate=2396.8kbits/s speed=0.0129x elapsed=0:04:30.78    \nframe=  213 fps=0.8 q=43.0 size=    1024KiB time=00:00:03.51 bitrate=2385.5kbits/s speed=0.013x elapsed=0:04:31.30    \nframe=  213 fps=0.8 q=43.0 size=    1024KiB time=00:00:03.51 bitrate=2385.5kbits/s speed=0.0129x elapsed=0:04:31.82    \nframe=  213 fps=0.8 q=43.0 size=    1024KiB time=00:00:03.51 bitrate=2385.5kbits/s speed=0.0129x elapsed=0:04:32.40    \nframe=  213 fps=0.8 q=43.0 size=    1024KiB time=00:00:03.51 bitrate=2385.5kbits/s speed=0.0129x elapsed=0:04:32.95    \nframe=  214 fps=0.8 q=43.9 size=    1024KiB time=00:00:03.53 bitrate=2374.2kbits/s speed=0.0129x elapsed=0:04:33.47    \nframe=  215 fps=0.8 q=43.5 size=    1024KiB time=00:00:03.55 bitrate=2363.1kbits/s speed=0.013x elapsed=0:04:34.00    \nframe=  215 fps=0.8 q=43.5 size=    1024KiB time=00:00:03.55 bitrate=2363.1kbits/s speed=0.0129x elapsed=0:04:34.52    \nframe=  216 fps=0.8 q=43.7 size=    1024KiB time=00:00:03.56 bitrate=2352.0kbits/s speed=0.013x elapsed=0:04:35.06    \nframe=  216 fps=0.8 q=43.7 size=    1024KiB time=00:00:03.56 bitrate=2352.0kbits/s speed=0.0129x elapsed=0:04:35.61    \nframe=  216 fps=0.8 q=43.7 size=    1024KiB time=00:00:03.56 bitrate=2352.0kbits/s speed=0.0129x elapsed=0:04:36.12    \nframe=  217 fps=0.8 q=38.3 size=    1024KiB time=00:00:03.56 bitrate=2352.0kbits/s speed=0.0129x elapsed=0:04:36.69    \nframe=  217 fps=0.8 q=38.3 size=    1024KiB time=00:00:03.58 bitrate=2341.1kbits/s speed=0.0129x elapsed=0:04:37.28    \nframe=  217 fps=0.8 q=38.3 size=    1024KiB time=00:00:03.58 bitrate=2341.1kbits/s speed=0.0129x elapsed=0:04:37.84    \nframe=  218 fps=0.8 q=43.2 size=    1024KiB time=00:00:03.60 bitrate=2330.3kbits/s speed=0.0129x elapsed=0:04:38.43    \nframe=  218 fps=0.8 q=43.2 size=    1024KiB time=00:00:03.60 bitrate=2330.3kbits/s speed=0.0129x elapsed=0:04:39.01    \nframe=  218 fps=0.8 q=43.2 size=    1024KiB time=00:00:03.60 bitrate=2330.3kbits/s speed=0.0129x elapsed=0:04:39.58    \nframe=  219 fps=0.8 q=44.0 size=    1024KiB time=00:00:03.60 bitrate=2330.3kbits/s speed=0.0129x elapsed=0:04:40.14    \nframe=  219 fps=0.8 q=44.0 size=    1024KiB time=00:00:03.61 bitrate=2319.5kbits/s speed=0.0129x elapsed=0:04:40.70    \nframe=  220 fps=0.8 q=44.2 size=    1024KiB time=00:00:03.63 bitrate=2308.9kbits/s speed=0.0129x elapsed=0:04:41.24    \nframe=  220 fps=0.8 q=44.2 size=    1024KiB time=00:00:03.63 bitrate=2308.9kbits/s speed=0.0129x elapsed=0:04:41.79    \nframe=  221 fps=0.8 q=44.3 size=    1024KiB time=00:00:03.65 bitrate=2298.3kbits/s speed=0.0129x elapsed=0:04:42.31    \nframe=  221 fps=0.8 q=44.3 size=    1024KiB time=00:00:03.65 bitrate=2298.3kbits/s speed=0.0129x elapsed=0:04:42.83    \nframe=  222 fps=0.8 q=38.1 size=    1024KiB time=00:00:03.66 bitrate=2287.9kbits/s speed=0.0129x elapsed=0:04:43.37    \nframe=  224 fps=0.8 q=44.9 size=    1024KiB time=00:00:03.70 bitrate=2267.3kbits/s speed=0.013x elapsed=0:04:43.91    \nframe=  224 fps=0.8 q=44.9 size=    1024KiB time=00:00:03.70 bitrate=2267.3kbits/s speed=0.013x elapsed=0:04:44.43    \nframe=  225 fps=0.8 q=44.7 size=    1024KiB time=00:00:03.71 bitrate=2257.1kbits/s speed=0.013x elapsed=0:04:44.93    \nframe=  226 fps=0.8 q=44.6 size=    1024KiB time=00:00:03.73 bitrate=2247.0kbits/s speed=0.0131x elapsed=0:04:45.45    \nframe=  226 fps=0.8 q=44.6 size=    1024KiB time=00:00:03.73 bitrate=2247.0kbits/s speed=0.0131x elapsed=0:04:46.01    \nframe=  228 fps=0.8 q=45.1 size=    1024KiB time=00:00:03.76 bitrate=2227.2kbits/s speed=0.0131x elapsed=0:04:46.54    \nframe=  228 fps=0.8 q=45.1 size=    1024KiB time=00:00:03.76 bitrate=2227.2kbits/s speed=0.0131x elapsed=0:04:47.08    \nframe=  229 fps=0.8 q=45.3 size=    1024KiB time=00:00:03.78 bitrate=2217.3kbits/s speed=0.0132x elapsed=0:04:47.59    \nframe=  230 fps=0.8 q=45.8 size=    1024KiB time=00:00:03.80 bitrate=2207.6kbits/s speed=0.0132x elapsed=0:04:48.11    \nframe=  230 fps=0.8 q=45.8 size=    1024KiB time=00:00:03.80 bitrate=2207.6kbits/s speed=0.0132x elapsed=0:04:48.63    \nframe=  230 fps=0.8 q=45.8 size=    1024KiB time=00:00:03.80 bitrate=2207.6kbits/s speed=0.0131x elapsed=0:04:49.14    \nframe=  231 fps=0.8 q=45.5 size=    1024KiB time=00:00:03.81 bitrate=2198.0kbits/s speed=0.0132x elapsed=0:04:49.67    \nframe=  232 fps=0.8 q=40.2 size=    1024KiB time=00:00:03.83 bitrate=2188.4kbits/s speed=0.0132x elapsed=0:04:50.21    \nframe=  233 fps=0.8 q=46.4 size=    1024KiB time=00:00:03.85 bitrate=2179.0kbits/s speed=0.0132x elapsed=0:04:50.73    \nframe=  233 fps=0.8 q=46.4 size=    1024KiB time=00:00:03.85 bitrate=2179.0kbits/s speed=0.0132x elapsed=0:04:51.26    \nframe=  234 fps=0.8 q=46.2 size=    1024KiB time=00:00:03.86 bitrate=2169.6kbits/s speed=0.0132x elapsed=0:04:51.82    \nframe=  234 fps=0.8 q=46.2 size=    1024KiB time=00:00:03.86 bitrate=2169.6kbits/s speed=0.0132x elapsed=0:04:52.33    \nframe=  234 fps=0.8 q=46.2 size=    1024KiB time=00:00:03.86 bitrate=2169.6kbits/s speed=0.0132x elapsed=0:04:52.86    \nframe=  235 fps=0.8 q=46.4 size=    1024KiB time=00:00:03.88 bitrate=2160.2kbits/s speed=0.0132x elapsed=0:04:53.39    \nframe=  235 fps=0.8 q=46.4 size=    1024KiB time=00:00:03.88 bitrate=2160.2kbits/s speed=0.0132x elapsed=0:04:53.91    \nframe=  236 fps=0.8 q=46.8 size=    1024KiB time=00:00:03.90 bitrate=2151.0kbits/s speed=0.0132x elapsed=0:04:54.44    \nframe=  236 fps=0.8 q=46.8 size=    1024KiB time=00:00:03.90 bitrate=2151.0kbits/s speed=0.0132x elapsed=0:04:54.96    \nframe=  237 fps=0.8 q=40.8 size=    1024KiB time=00:00:03.91 bitrate=2141.9kbits/s speed=0.0133x elapsed=0:04:55.51    \nframe=  238 fps=0.8 q=47.1 size=    1024KiB time=00:00:03.93 bitrate=2132.8kbits/s speed=0.0133x elapsed=0:04:56.04    \nframe=  238 fps=0.8 q=47.1 size=    1024KiB time=00:00:03.93 bitrate=2132.8kbits/s speed=0.0133x elapsed=0:04:56.58    \nframe=  238 fps=0.8 q=47.1 size=    1024KiB time=00:00:03.93 bitrate=2132.8kbits/s speed=0.0132x elapsed=0:04:57.11    \nframe=  238 fps=0.8 q=47.1 size=    1024KiB time=00:00:03.93 bitrate=2132.8kbits/s speed=0.0132x elapsed=0:04:57.63    \nframe=  239 fps=0.8 q=47.0 size=    1024KiB time=00:00:03.95 bitrate=2123.8kbits/s speed=0.0132x elapsed=0:04:58.17    \nframe=  240 fps=0.8 q=47.4 size=    1024KiB time=00:00:03.96 bitrate=2114.9kbits/s speed=0.0133x elapsed=0:04:58.69    \nframe=  240 fps=0.8 q=47.4 size=    1024KiB time=00:00:03.96 bitrate=2114.9kbits/s speed=0.0133x elapsed=0:04:59.22    \nframe=  240 fps=0.8 q=47.4 size=    1024KiB time=00:00:03.96 bitrate=2114.9kbits/s speed=0.0132x elapsed=0:04:59.75    \nframe=  241 fps=0.8 q=47.5 size=    1024KiB time=00:00:03.98 bitrate=2106.0kbits/s speed=0.0133x elapsed=0:05:00.27    \nframe=  241 fps=0.8 q=47.5 size=    1024KiB time=00:00:03.98 bitrate=2106.0kbits/s speed=0.0132x elapsed=0:05:00.79    \nframe=  241 fps=0.8 q=47.5 size=    1024KiB time=00:00:03.98 bitrate=2106.0kbits/s speed=0.0132x elapsed=0:05:01.31    \nframe=  243 fps=0.8 q=47.5 size=    1024KiB time=00:00:04.01 bitrate=2088.5kbits/s speed=0.0133x elapsed=0:05:01.85    \nframe=  243 fps=0.8 q=47.5 size=    1024KiB time=00:00:04.01 bitrate=2088.5kbits/s speed=0.0133x elapsed=0:05:02.38    \nframe=  244 fps=0.8 q=47.5 size=    1024KiB time=00:00:04.03 bitrate=2079.9kbits/s speed=0.0133x elapsed=0:05:02.91    \nframe=  244 fps=0.8 q=47.5 size=    1024KiB time=00:00:04.03 bitrate=2079.9kbits/s speed=0.0133x elapsed=0:05:03.42    \nframe=  244 fps=0.8 q=47.5 size=    1024KiB time=00:00:04.03 bitrate=2079.9kbits/s speed=0.0133x elapsed=0:05:03.93    \nframe=  244 fps=0.8 q=47.5 size=    1024KiB time=00:00:04.03 bitrate=2079.9kbits/s speed=0.0132x elapsed=0:05:04.46    \nframe=  244 fps=0.8 q=47.5 size=    1024KiB time=00:00:04.03 bitrate=2079.9kbits/s speed=0.0132x elapsed=0:05:04.98    \nframe=  245 fps=0.8 q=48.0 size=    1024KiB time=00:00:04.05 bitrate=2071.3kbits/s speed=0.0133x elapsed=0:05:05.50    \nframe=  246 fps=0.8 q=47.9 size=    1024KiB time=00:00:04.06 bitrate=2062.9kbits/s speed=0.0133x elapsed=0:05:06.03    \nframe=  246 fps=0.8 q=47.9 size=    1024KiB time=00:00:04.06 bitrate=2062.9kbits/s speed=0.0133x elapsed=0:05:06.54    \nframe=  246 fps=0.8 q=47.9 size=    1024KiB time=00:00:04.06 bitrate=2062.9kbits/s speed=0.0132x elapsed=0:05:07.08    \nframe=  246 fps=0.8 q=47.9 size=    1024KiB time=00:00:04.06 bitrate=2062.9kbits/s speed=0.0132x elapsed=0:05:07.67    \nframe=  246 fps=0.8 q=47.9 size=    1024KiB time=00:00:04.06 bitrate=2062.9kbits/s speed=0.0132x elapsed=0:05:08.19    \nframe=  247 fps=0.8 q=38.7 size=    1024KiB time=00:00:04.08 bitrate=2054.4kbits/s speed=0.0132x elapsed=0:05:08.71    \nframe=  248 fps=0.8 q=49.4 size=    1280KiB time=00:00:04.10 bitrate=2557.6kbits/s speed=0.0133x elapsed=0:05:09.25    \nframe=  249 fps=0.8 q=50.0 size=    1280KiB time=00:00:04.11 bitrate=2547.2kbits/s speed=0.0133x elapsed=0:05:09.76    \nframe=  250 fps=0.8 q=49.3 size=    1280KiB time=00:00:04.13 bitrate=2537.0kbits/s speed=0.0133x elapsed=0:05:10.29    \nframe=  250 fps=0.8 q=49.3 size=    1280KiB time=00:00:04.13 bitrate=2537.0kbits/s speed=0.0133x elapsed=0:05:10.81    \nframe=  251 fps=0.8 q=49.5 size=    1280KiB time=00:00:04.15 bitrate=2526.8kbits/s speed=0.0133x elapsed=0:05:11.33    \nframe=  251 fps=0.8 q=49.5 size=    1280KiB time=00:00:04.15 bitrate=2526.8kbits/s speed=0.0133x elapsed=0:05:11.84    \nframe=  251 fps=0.8 q=49.5 size=    1280KiB time=00:00:04.15 bitrate=2526.8kbits/s speed=0.0133x elapsed=0:05:12.37    \nframe=  252 fps=0.8 q=42.7 size=    1280KiB time=00:00:04.16 bitrate=2516.7kbits/s speed=0.0133x elapsed=0:05:12.90    \nframe=  252 fps=0.8 q=42.7 size=    1280KiB time=00:00:04.16 bitrate=2516.7kbits/s speed=0.0133x elapsed=0:05:13.46    \nframe=  252 fps=0.8 q=42.7 size=    1280KiB time=00:00:04.16 bitrate=2516.7kbits/s speed=0.0133x elapsed=0:05:14.02    \nframe=  253 fps=0.8 q=48.3 size=    1280KiB time=00:00:04.18 bitrate=2506.6kbits/s speed=0.0133x elapsed=0:05:14.54    \nframe=  254 fps=0.8 q=49.4 size=    1280KiB time=00:00:04.20 bitrate=2496.7kbits/s speed=0.0133x elapsed=0:05:15.07    \nframe=  255 fps=0.8 q=49.4 size=    1280KiB time=00:00:04.21 bitrate=2486.8kbits/s speed=0.0134x elapsed=0:05:15.60    \nframe=  255 fps=0.8 q=49.4 size=    1280KiB time=00:00:04.21 bitrate=2486.8kbits/s speed=0.0133x elapsed=0:05:16.14    \nframe=  256 fps=0.8 q=49.3 size=    1280KiB time=00:00:04.23 bitrate=2477.0kbits/s speed=0.0134x elapsed=0:05:16.66    \nframe=  256 fps=0.8 q=49.3 size=    1280KiB time=00:00:04.23 bitrate=2477.0kbits/s speed=0.0133x elapsed=0:05:17.17    \nframe=  256 fps=0.8 q=49.3 size=    1280KiB time=00:00:04.23 bitrate=2477.0kbits/s speed=0.0133x elapsed=0:05:17.69    \nframe=  256 fps=0.8 q=49.3 size=    1280KiB time=00:00:04.23 bitrate=2477.0kbits/s speed=0.0133x elapsed=0:05:18.20    \nframe=  256 fps=0.8 q=49.3 size=    1280KiB time=00:00:04.23 bitrate=2477.0kbits/s speed=0.0133x elapsed=0:05:18.75    \nframe=  257 fps=0.8 q=44.6 size=    1280KiB time=00:00:04.25 bitrate=2467.3kbits/s speed=0.0133x elapsed=0:05:19.29    \nframe=  257 fps=0.8 q=44.6 size=    1280KiB time=00:00:04.25 bitrate=2467.3kbits/s speed=0.0133x elapsed=0:05:19.84    \nframe=  257 fps=0.8 q=44.6 size=    1280KiB time=00:00:04.25 bitrate=2467.3kbits/s speed=0.0133x elapsed=0:05:20.49    \nframe=  257 fps=0.8 q=44.6 size=    1280KiB time=00:00:04.25 bitrate=2467.3kbits/s speed=0.0132x elapsed=0:05:21.08    \nframe=  257 fps=0.8 q=44.6 size=    1280KiB time=00:00:04.25 bitrate=2467.3kbits/s speed=0.0132x elapsed=0:05:21.63    \nframe=  258 fps=0.8 q=49.8 size=    1280KiB time=00:00:04.26 bitrate=2457.7kbits/s speed=0.0132x elapsed=0:05:22.14    \nframe=  258 fps=0.8 q=49.8 size=    1280KiB time=00:00:04.26 bitrate=2457.7kbits/s speed=0.0132x elapsed=0:05:22.68    \nframe=  258 fps=0.8 q=49.8 size=    1280KiB time=00:00:04.26 bitrate=2457.7kbits/s speed=0.0132x elapsed=0:05:23.27    \nframe=  258 fps=0.8 q=49.8 size=    1280KiB time=00:00:04.26 bitrate=2457.7kbits/s speed=0.0132x elapsed=0:05:23.81    \nframe=  259 fps=0.8 q=49.9 size=    1280KiB time=00:00:04.28 bitrate=2448.1kbits/s speed=0.0132x elapsed=0:05:24.33    \nframe=  260 fps=0.8 q=49.9 size=    1280KiB time=00:00:04.30 bitrate=2438.6kbits/s speed=0.0132x elapsed=0:05:24.85    \nframe=  261 fps=0.8 q=50.3 size=    1280KiB time=00:00:04.31 bitrate=2429.2kbits/s speed=0.0133x elapsed=0:05:25.38    \nframe=  261 fps=0.8 q=50.3 size=    1280KiB time=00:00:04.31 bitrate=2429.2kbits/s speed=0.0132x elapsed=0:05:25.90    \nframe=  261 fps=0.8 q=50.3 size=    1280KiB time=00:00:04.31 bitrate=2429.2kbits/s speed=0.0132x elapsed=0:05:26.43    \nframe=  262 fps=0.8 q=44.6 size=    1280KiB time=00:00:04.33 bitrate=2419.9kbits/s speed=0.0133x elapsed=0:05:26.95    \nframe=  263 fps=0.8 q=49.9 size=    1280KiB time=00:00:04.35 bitrate=2410.6kbits/s speed=0.0133x elapsed=0:05:27.48    \nframe=  263 fps=0.8 q=49.9 size=    1280KiB time=00:00:04.35 bitrate=2410.6kbits/s speed=0.0133x elapsed=0:05:28.00    \nframe=  264 fps=0.8 q=50.1 size=    1280KiB time=00:00:04.36 bitrate=2401.4kbits/s speed=0.0133x elapsed=0:05:28.51    \nframe=  265 fps=0.8 q=50.4 size=    1280KiB time=00:00:04.38 bitrate=2392.3kbits/s speed=0.0133x elapsed=0:05:29.03    \nframe=  266 fps=0.8 q=50.3 size=    1280KiB time=00:00:04.40 bitrate=2383.2kbits/s speed=0.0134x elapsed=0:05:29.55    \nframe=  266 fps=0.8 q=50.3 size=    1280KiB time=00:00:04.40 bitrate=2383.2kbits/s speed=0.0133x elapsed=0:05:30.07    \nframe=  267 fps=0.8 q=44.9 size=    1280KiB time=00:00:04.41 bitrate=2374.2kbits/s speed=0.0134x elapsed=0:05:30.59    \nframe=  268 fps=0.8 q=50.0 size=    1280KiB time=00:00:04.43 bitrate=2365.3kbits/s speed=0.0134x elapsed=0:05:31.10    \nframe=  268 fps=0.8 q=50.0 size=    1280KiB time=00:00:04.43 bitrate=2365.3kbits/s speed=0.0134x elapsed=0:05:31.63    \nframe=  268 fps=0.8 q=50.0 size=    1280KiB time=00:00:04.43 bitrate=2365.3kbits/s speed=0.0133x elapsed=0:05:32.18    \nframe=  268 fps=0.8 q=50.0 size=    1280KiB time=00:00:04.43 bitrate=2365.3kbits/s speed=0.0133x elapsed=0:05:32.70    \nframe=  269 fps=0.8 q=50.2 size=    1280KiB time=00:00:04.45 bitrate=2356.4kbits/s speed=0.0134x elapsed=0:05:33.22    \nframe=  269 fps=0.8 q=50.2 size=    1280KiB time=00:00:04.45 bitrate=2356.4kbits/s speed=0.0133x elapsed=0:05:33.73    \nframe=  270 fps=0.8 q=50.7 size=    1280KiB time=00:00:04.46 bitrate=2347.6kbits/s speed=0.0134x elapsed=0:05:34.25    \nframe=  271 fps=0.8 q=50.6 size=    1280KiB time=00:00:04.48 bitrate=2338.9kbits/s speed=0.0134x elapsed=0:05:34.79    \nframe=  271 fps=0.8 q=50.6 size=    1280KiB time=00:00:04.48 bitrate=2338.9kbits/s speed=0.0134x elapsed=0:05:35.33    \nframe=  271 fps=0.8 q=50.6 size=    1280KiB time=00:00:04.48 bitrate=2338.9kbits/s speed=0.0133x elapsed=0:05:35.85    \nframe=  271 fps=0.8 q=50.6 size=    1280KiB time=00:00:04.48 bitrate=2338.9kbits/s speed=0.0133x elapsed=0:05:36.37    \nframe=  272 fps=0.8 q=44.9 size=    1280KiB time=00:00:04.50 bitrate=2330.2kbits/s speed=0.0134x elapsed=0:05:36.89    \nframe=  272 fps=0.8 q=44.9 size=    1280KiB time=00:00:04.50 bitrate=2330.2kbits/s speed=0.0133x elapsed=0:05:37.40    \nframe=  272 fps=0.8 q=44.9 size=    1280KiB time=00:00:04.50 bitrate=2330.2kbits/s speed=0.0133x elapsed=0:05:37.92    \nframe=  273 fps=0.8 q=50.2 size=    1280KiB time=00:00:04.51 bitrate=2321.6kbits/s speed=0.0133x elapsed=0:05:38.44    \nframe=  273 fps=0.8 q=50.2 size=    1280KiB time=00:00:04.51 bitrate=2321.6kbits/s speed=0.0133x elapsed=0:05:38.95    \nframe=  273 fps=0.8 q=50.2 size=    1280KiB time=00:00:04.51 bitrate=2321.6kbits/s speed=0.0133x elapsed=0:05:39.47    \nframe=  273 fps=0.8 q=50.2 size=    1280KiB time=00:00:04.51 bitrate=2321.6kbits/s speed=0.0133x elapsed=0:05:40.00    \nframe=  275 fps=0.8 q=50.8 size=    1280KiB time=00:00:04.55 bitrate=2304.6kbits/s speed=0.0134x elapsed=0:05:40.52    \nframe=  276 fps=0.8 q=50.7 size=    1280KiB time=00:00:04.56 bitrate=2296.2kbits/s speed=0.0134x elapsed=0:05:41.03    \nframe=  276 fps=0.8 q=50.7 size=    1280KiB time=00:00:04.56 bitrate=2296.2kbits/s speed=0.0134x elapsed=0:05:41.56    \nframe=  276 fps=0.8 q=50.7 size=    1280KiB time=00:00:04.56 bitrate=2296.2kbits/s speed=0.0133x elapsed=0:05:42.07    \nframe=  276 fps=0.8 q=50.7 size=    1280KiB time=00:00:04.56 bitrate=2296.2kbits/s speed=0.0133x elapsed=0:05:42.60    \nframe=  277 fps=0.8 q=45.1 size=    1280KiB time=00:00:04.58 bitrate=2287.9kbits/s speed=0.0134x elapsed=0:05:43.13    \nframe=  277 fps=0.8 q=45.1 size=    1280KiB time=00:00:04.58 bitrate=2287.9kbits/s speed=0.0133x elapsed=0:05:43.63    \nframe=  278 fps=0.8 q=49.4 size=    1280KiB time=00:00:04.60 bitrate=2279.6kbits/s speed=0.0134x elapsed=0:05:44.16    \nframe=  278 fps=0.8 q=49.4 size=    1280KiB time=00:00:04.60 bitrate=2279.6kbits/s speed=0.0133x elapsed=0:05:44.68    \nframe=  278 fps=0.8 q=49.4 size=    1280KiB time=00:00:04.60 bitrate=2279.6kbits/s speed=0.0133x elapsed=0:05:45.19    \nframe=  278 fps=0.8 q=49.4 size=    1280KiB time=00:00:04.60 bitrate=2279.6kbits/s speed=0.0133x elapsed=0:05:45.70    \nframe=  279 fps=0.8 q=50.7 size=    1280KiB time=00:00:04.61 bitrate=2271.4kbits/s speed=0.0133x elapsed=0:05:46.22    \nframe=  280 fps=0.8 q=50.8 size=    1280KiB time=00:00:04.63 bitrate=2263.2kbits/s speed=0.0134x elapsed=0:05:46.75    \nframe=  280 fps=0.8 q=50.8 size=    1280KiB time=00:00:04.63 bitrate=2263.2kbits/s speed=0.0133x elapsed=0:05:47.29    \nframe=  281 fps=0.8 q=45.1 size=    1280KiB time=00:00:04.65 bitrate=2255.1kbits/s speed=0.0134x elapsed=0:05:47.81    \nframe=  281 fps=0.8 q=45.1 size=    1280KiB time=00:00:04.65 bitrate=2255.1kbits/s speed=0.0133x elapsed=0:05:48.33    \nframe=  282 fps=0.8 q=49.7 size=    1280KiB time=00:00:04.66 bitrate=2247.0kbits/s speed=0.0134x elapsed=0:05:48.86    \nframe=  282 fps=0.8 q=49.7 size=    1280KiB time=00:00:04.66 bitrate=2247.0kbits/s speed=0.0134x elapsed=0:05:49.39    \nframe=  282 fps=0.8 q=49.7 size=    1280KiB time=00:00:04.66 bitrate=2247.0kbits/s speed=0.0133x elapsed=0:05:49.92    \nframe=  282 fps=0.8 q=49.7 size=    1280KiB time=00:00:04.66 bitrate=2247.0kbits/s speed=0.0133x elapsed=0:05:50.46    \nframe=  283 fps=0.8 q=50.7 size=    1280KiB time=00:00:04.68 bitrate=2239.0kbits/s speed=0.0133x elapsed=0:05:50.97    \nframe=  284 fps=0.8 q=50.9 size=    1280KiB time=00:00:04.70 bitrate=2231.1kbits/s speed=0.0134x elapsed=0:05:51.52    \nframe=  285 fps=0.8 q=50.9 size=    1280KiB time=00:00:04.71 bitrate=2223.2kbits/s speed=0.0134x elapsed=0:05:52.06    \nframe=  285 fps=0.8 q=50.9 size=    1280KiB time=00:00:04.71 bitrate=2223.2kbits/s speed=0.0134x elapsed=0:05:52.59    \nframe=  285 fps=0.8 q=50.9 size=    1280KiB time=00:00:04.71 bitrate=2223.2kbits/s speed=0.0134x elapsed=0:05:53.13    \nframe=  285 fps=0.8 q=50.9 size=    1280KiB time=00:00:04.71 bitrate=2223.2kbits/s speed=0.0133x elapsed=0:05:53.66    \nframe=  286 fps=0.8 q=45.2 size=    1280KiB time=00:00:04.73 bitrate=2215.4kbits/s speed=0.0134x elapsed=0:05:54.21    \nframe=  286 fps=0.8 q=45.2 size=    1280KiB time=00:00:04.73 bitrate=2215.4kbits/s speed=0.0133x elapsed=0:05:54.76    \nframe=  286 fps=0.8 q=45.2 size=    1280KiB time=00:00:04.73 bitrate=2215.4kbits/s speed=0.0133x elapsed=0:05:55.28    \nframe=  287 fps=0.8 q=50.0 size=    1280KiB time=00:00:04.75 bitrate=2207.6kbits/s speed=0.0133x elapsed=0:05:55.82    \nframe=  287 fps=0.8 q=50.0 size=    1280KiB time=00:00:04.75 bitrate=2207.6kbits/s speed=0.0133x elapsed=0:05:56.32    \nframe=  288 fps=0.8 q=50.9 size=    1280KiB time=00:00:04.76 bitrate=2199.9kbits/s speed=0.0134x elapsed=0:05:56.85    \nframe=  288 fps=0.8 q=50.9 size=    1280KiB time=00:00:04.76 bitrate=2199.9kbits/s speed=0.0133x elapsed=0:05:57.35    \nframe=  289 fps=0.8 q=51.0 size=    1280KiB time=00:00:04.78 bitrate=2192.2kbits/s speed=0.0134x elapsed=0:05:57.87    \nframe=  289 fps=0.8 q=51.0 size=    1280KiB time=00:00:04.78 bitrate=2192.2kbits/s speed=0.0133x elapsed=0:05:58.40    \nframe=  290 fps=0.8 q=50.9 size=    1280KiB time=00:00:04.80 bitrate=2184.6kbits/s speed=0.0134x elapsed=0:05:58.92    \nframe=  290 fps=0.8 q=50.9 size=    1280KiB time=00:00:04.80 bitrate=2184.6kbits/s speed=0.0134x elapsed=0:05:59.44    \nframe=  290 fps=0.8 q=50.9 size=    1280KiB time=00:00:04.80 bitrate=2184.6kbits/s speed=0.0133x elapsed=0:05:59.95    \nframe=  291 fps=0.8 q=45.4 size=    1536KiB time=00:00:04.81 bitrate=2612.4kbits/s speed=0.0134x elapsed=0:06:00.47    \nframe=  292 fps=0.8 q=49.4 size=    1536KiB time=00:00:04.83 bitrate=2603.4kbits/s speed=0.0134x elapsed=0:06:00.99    \nframe=  292 fps=0.8 q=49.4 size=    1536KiB time=00:00:04.83 bitrate=2603.4kbits/s speed=0.0134x elapsed=0:06:01.50    \nframe=  293 fps=0.8 q=50.6 size=    1536KiB time=00:00:04.85 bitrate=2594.5kbits/s speed=0.0134x elapsed=0:06:02.02    \nframe=  294 fps=0.8 q=50.9 size=    1536KiB time=00:00:04.86 bitrate=2585.6kbits/s speed=0.0134x elapsed=0:06:02.56    \nframe=  294 fps=0.8 q=50.9 size=    1536KiB time=00:00:04.86 bitrate=2585.6kbits/s speed=0.0134x elapsed=0:06:03.08    \nframe=  295 fps=0.8 q=50.6 size=    1536KiB time=00:00:04.88 bitrate=2576.8kbits/s speed=0.0134x elapsed=0:06:03.59    \nframe=  295 fps=0.8 q=50.6 size=    1536KiB time=00:00:04.88 bitrate=2576.8kbits/s speed=0.0134x elapsed=0:06:04.10    \nframe=  296 fps=0.8 q=46.7 size=    1536KiB time=00:00:04.90 bitrate=2568.0kbits/s speed=0.0134x elapsed=0:06:04.63    \nframe=  297 fps=0.8 q=50.5 size=    1536KiB time=00:00:04.91 bitrate=2559.3kbits/s speed=0.0135x elapsed=0:06:05.16    \nframe=  297 fps=0.8 q=50.5 size=    1536KiB time=00:00:04.91 bitrate=2559.3kbits/s speed=0.0134x elapsed=0:06:05.67    \nframe=  297 fps=0.8 q=50.5 size=    1536KiB time=00:00:04.91 bitrate=2559.3kbits/s speed=0.0134x elapsed=0:06:06.19    \nframe=  298 fps=0.8 q=50.8 size=    1536KiB time=00:00:04.93 bitrate=2550.7kbits/s speed=0.0135x elapsed=0:06:06.71    \n[mp4 @ 000001e42c687ac0] Starting second pass: moving the moov atom to the beginning of the file\n[out#0/mp4 @ 000001e42c5fab40] video:1593KiB audio:0KiB subtitle:0KiB other streams:0KiB global headers:2KiB muxing overhead: 0.417848%\nframe=  300 fps=0.8 q=50.3 Lsize=    1600KiB time=00:00:04.96 bitrate=2639.2kbits/s speed=0.0135x elapsed=0:06:06.74    \nx265 [info]: frame I:      2, Avg QP:40.39  kb/s: 34878.72\nx265 [info]: frame P:     59, Avg QP:40.14  kb/s: 5447.87 \nx265 [info]: frame B:    239, Avg QP:46.14  kb/s: 1637.89 \nx265 [info]: Weighted P-Frames: Y:0.0% UV:0.0%\n\nencoded 300 frames in 365.77s (0.82 fps), 2608.79 kb/s, Avg QP:44.92\n",
  "seconds": 367.2592806816101,
  "probe_out": {}
}